<mxfile host="app.diagrams.net" agent="Mozilla/5.0 (Windows NT 10.0; Win64; x64) AppleWebKit/537.36 (KHTML, like Gecko) Chrome/131.0.0.0 Safari/537.36" version="26.0.2">
  <diagram name="Page-1" id="xCWIDsygxiZFknYham-V">
    <mxGraphModel dx="2401" dy="1090" grid="1" gridSize="10" guides="1" tooltips="1" connect="1" arrows="1" fold="1" page="1" pageScale="1" pageWidth="1169" pageHeight="827" math="0" shadow="0">
      <root>
        <mxCell id="0" />
        <mxCell id="1" parent="0" />
        <mxCell id="I_wzLPUWf7Y4S3tqMVke-35" value="" style="edgeStyle=orthogonalEdgeStyle;html=1;endArrow=block;elbow=vertical;startArrow=block;startFill=1;endFill=1;strokeColor=#000000;rounded=0;entryX=0.5;entryY=0;entryDx=0;entryDy=0;strokeWidth=3;" parent="1" source="I_wzLPUWf7Y4S3tqMVke-31" edge="1">
          <mxGeometry width="100" relative="1" as="geometry">
            <mxPoint x="540" y="460" as="sourcePoint" />
            <mxPoint x="580" y="101" as="targetPoint" />
            <Array as="points">
              <mxPoint x="10" y="10" />
              <mxPoint x="580" y="10" />
            </Array>
          </mxGeometry>
        </mxCell>
        <mxCell id="GoZTo88fbC2dwOfaapeQ-1" value="" style="endArrow=classic;html=1;rounded=0;entryX=0.5;entryY=0;entryDx=0;entryDy=0;fillColor=#f8cecc;strokeColor=#b85450;strokeWidth=2;exitX=0.5;exitY=1;exitDx=0;exitDy=0;edgeStyle=orthogonalEdgeStyle;" edge="1" parent="1" source="GoZTo88fbC2dwOfaapeQ-6" target="GoZTo88fbC2dwOfaapeQ-8">
          <mxGeometry width="50" height="50" relative="1" as="geometry">
            <mxPoint x="-332" y="725" as="sourcePoint" />
            <mxPoint x="-282" y="675" as="targetPoint" />
          </mxGeometry>
        </mxCell>
        <mxCell id="GoZTo88fbC2dwOfaapeQ-2" style="edgeStyle=orthogonalEdgeStyle;rounded=0;orthogonalLoop=1;jettySize=auto;html=1;exitX=0.5;exitY=1;exitDx=0;exitDy=0;fillColor=#f5f5f5;strokeColor=light-dark(#5C79A3,#5C79A3);strokeWidth=2;" edge="1" parent="1">
          <mxGeometry relative="1" as="geometry">
            <mxPoint x="-362" y="824" as="targetPoint" />
            <mxPoint x="-362.5" y="744" as="sourcePoint" />
          </mxGeometry>
        </mxCell>
        <mxCell id="GoZTo88fbC2dwOfaapeQ-3" value="&lt;font style=&quot;font-size: 16px;&quot;&gt;Input Image&lt;/font&gt;" style="text;html=1;align=center;verticalAlign=middle;whiteSpace=wrap;rounded=0;" vertex="1" parent="1">
          <mxGeometry x="-610" y="130" width="100" height="30" as="geometry" />
        </mxCell>
        <mxCell id="GoZTo88fbC2dwOfaapeQ-4" value="" style="endArrow=classic;html=1;rounded=0;fillColor=#f8cecc;strokeColor=#b85450;strokeWidth=2;exitX=1;exitY=0.5;exitDx=0;exitDy=0;edgeStyle=orthogonalEdgeStyle;" edge="1" parent="1" source="GoZTo88fbC2dwOfaapeQ-6">
          <mxGeometry width="50" height="50" relative="1" as="geometry">
            <mxPoint x="-550" y="438" as="sourcePoint" />
            <mxPoint x="-162" y="824" as="targetPoint" />
            <Array as="points">
              <mxPoint x="-162" y="384" />
              <mxPoint x="-162" y="824" />
            </Array>
          </mxGeometry>
        </mxCell>
        <mxCell id="GoZTo88fbC2dwOfaapeQ-5" value="&lt;font style=&quot;font-size: 16px;&quot;&gt;spaguetti_carbonara&lt;/font&gt;" style="text;html=1;align=center;verticalAlign=middle;whiteSpace=wrap;rounded=0;" vertex="1" parent="1">
          <mxGeometry x="-620.99" y="834" width="120" height="30" as="geometry" />
        </mxCell>
        <mxCell id="GoZTo88fbC2dwOfaapeQ-6" value="&lt;div&gt;&lt;span style=&quot;font-size: 16px;&quot;&gt;Is it food?&lt;/span&gt;&lt;/div&gt;&lt;div&gt;&lt;span style=&quot;font-size: 16px;&quot;&gt;(EffinentNetB0)&lt;/span&gt;&lt;/div&gt;" style="rounded=0;whiteSpace=wrap;html=1;fillColor=#f8cecc;strokeColor=#b85450;strokeWidth=2;" vertex="1" parent="1">
          <mxGeometry x="-640" y="344" width="160" height="80" as="geometry" />
        </mxCell>
        <mxCell id="GoZTo88fbC2dwOfaapeQ-7" style="edgeStyle=orthogonalEdgeStyle;rounded=0;orthogonalLoop=1;jettySize=auto;html=1;exitX=0.5;exitY=1;exitDx=0;exitDy=0;fillColor=#dae8fc;strokeColor=light-dark(#6C8EBF,#959595);strokeWidth=2;entryX=0.5;entryY=0;entryDx=0;entryDy=0;" edge="1" parent="1" source="GoZTo88fbC2dwOfaapeQ-12" target="GoZTo88fbC2dwOfaapeQ-6">
          <mxGeometry relative="1" as="geometry">
            <mxPoint x="-560" y="289" as="sourcePoint" />
            <mxPoint x="-560" y="344" as="targetPoint" />
          </mxGeometry>
        </mxCell>
        <mxCell id="GoZTo88fbC2dwOfaapeQ-8" value="&lt;div&gt;&lt;span style=&quot;font-size: 16px;&quot;&gt;What food?&lt;/span&gt;&lt;/div&gt;&lt;div&gt;&lt;span style=&quot;font-size: 16px;&quot;&gt;(ViT-Base/16-384)&lt;/span&gt;&lt;/div&gt;" style="rounded=0;whiteSpace=wrap;html=1;fillColor=#D5E8D4;strokeColor=#82B366;strokeWidth=2;gradientColor=none;" vertex="1" parent="1">
          <mxGeometry x="-640" y="544" width="160" height="80" as="geometry" />
        </mxCell>
        <mxCell id="GoZTo88fbC2dwOfaapeQ-9" value="" style="endArrow=classic;html=1;rounded=0;fillColor=#f8cecc;strokeColor=light-dark(#446E2C,#446E2C);strokeWidth=2;exitX=1;exitY=0.5;exitDx=0;exitDy=0;edgeStyle=orthogonalEdgeStyle;" edge="1" parent="1">
          <mxGeometry width="50" height="50" relative="1" as="geometry">
            <mxPoint x="-480" y="584" as="sourcePoint" />
            <mxPoint x="-362" y="664" as="targetPoint" />
            <Array as="points">
              <mxPoint x="-362" y="584" />
              <mxPoint x="-362" y="664" />
            </Array>
          </mxGeometry>
        </mxCell>
        <mxCell id="GoZTo88fbC2dwOfaapeQ-10" value="&lt;div&gt;&lt;span style=&quot;font-size: 16px;&quot;&gt;Is the entropy high?&lt;/span&gt;&lt;/div&gt;" style="rounded=0;whiteSpace=wrap;html=1;fillColor=#dae8fc;strokeColor=#6C8EBF;strokeWidth=2;gradientColor=none;" vertex="1" parent="1">
          <mxGeometry x="-442" y="664" width="160" height="80" as="geometry" />
        </mxCell>
        <mxCell id="GoZTo88fbC2dwOfaapeQ-11" style="edgeStyle=orthogonalEdgeStyle;rounded=0;orthogonalLoop=1;jettySize=auto;html=1;exitX=0.5;exitY=1;exitDx=0;exitDy=0;fillColor=#f5f5f5;strokeColor=light-dark(#446E2C,#446E2C);strokeWidth=2;" edge="1" parent="1">
          <mxGeometry relative="1" as="geometry">
            <mxPoint x="-560" y="824" as="targetPoint" />
            <mxPoint x="-560.5" y="624" as="sourcePoint" />
          </mxGeometry>
        </mxCell>
        <mxCell id="GoZTo88fbC2dwOfaapeQ-12" value="" style="shape=image;verticalLabelPosition=bottom;labelBackgroundColor=default;verticalAlign=top;aspect=fixed;imageAspect=0;image=data:image/jpeg,/9j/4AAQSkZJRgABAQEAZABkAAD/4gv4SUNDX1BST0ZJTEUAAQEAAAvoAAAAAAIAAABtbnRyUkdCIFhZWiAH2QADABsAFQAkAB9hY3NwAAAAAAAAAAAAAAAAAAAAAAAAAAEAAAAAAAAAAAAA9tYAAQAAAADTLQAAAAAp+D3er/JVrnhC+uTKgzkNAAAAAAAAAAAAAAAAAAAAAAAAAAAAAAAAAAAAAAAAABBkZXNjAAABRAAAAHliWFlaAAABwAAAABRiVFJDAAAB1AAACAxkbWRkAAAJ4AAAAIhnWFlaAAAKaAAAABRnVFJDAAAB1AAACAxsdW1pAAAKfAAAABRtZWFzAAAKkAAAACRia3B0AAAKtAAAABRyWFlaAAAKyAAAABRyVFJDAAAB1AAACAx0ZWNoAAAK3AAAAAx2dWVkAAAK6AAAAId3dHB0AAALcAAAABRjcHJ0AAALhAAAADdjaGFkAAALvAAAACxkZXNjAAAAAAAAAB9zUkdCIElFQzYxOTY2LTItMSBibGFjayBzY2FsZWQAAAAAAAAAAAAAAAAAAAAAAAAAAAAAAAAAAAAAAAAAAAAAAAAAAAAAAAAAAAAAAAAAAAAAAAAAAAAAAAAAAAAAAAAAAAAAAAAAAAAAAAAAAAAAWFlaIAAAAAAAACSgAAAPhAAAts9jdXJ2AAAAAAAABAAAAAAFAAoADwAUABkAHgAjACgALQAyADcAOwBAAEUASgBPAFQAWQBeAGMAaABtAHIAdwB8AIEAhgCLAJAAlQCaAJ8ApACpAK4AsgC3ALwAwQDGAMsA0ADVANsA4ADlAOsA8AD2APsBAQEHAQ0BEwEZAR8BJQErATIBOAE+AUUBTAFSAVkBYAFnAW4BdQF8AYMBiwGSAZoBoQGpAbEBuQHBAckB0QHZAeEB6QHyAfoCAwIMAhQCHQImAi8COAJBAksCVAJdAmcCcQJ6AoQCjgKYAqICrAK2AsECywLVAuAC6wL1AwADCwMWAyEDLQM4A0MDTwNaA2YDcgN+A4oDlgOiA64DugPHA9MD4APsA/kEBgQTBCAELQQ7BEgEVQRjBHEEfgSMBJoEqAS2BMQE0wThBPAE/gUNBRwFKwU6BUkFWAVnBXcFhgWWBaYFtQXFBdUF5QX2BgYGFgYnBjcGSAZZBmoGewaMBp0GrwbABtEG4wb1BwcHGQcrBz0HTwdhB3QHhgeZB6wHvwfSB+UH+AgLCB8IMghGCFoIbgiCCJYIqgi+CNII5wj7CRAJJQk6CU8JZAl5CY8JpAm6Cc8J5Qn7ChEKJwo9ClQKagqBCpgKrgrFCtwK8wsLCyILOQtRC2kLgAuYC7ALyAvhC/kMEgwqDEMMXAx1DI4MpwzADNkM8w0NDSYNQA1aDXQNjg2pDcMN3g34DhMOLg5JDmQOfw6bDrYO0g7uDwkPJQ9BD14Peg+WD7MPzw/sEAkQJhBDEGEQfhCbELkQ1xD1ERMRMRFPEW0RjBGqEckR6BIHEiYSRRJkEoQSoxLDEuMTAxMjE0MTYxODE6QTxRPlFAYUJxRJFGoUixStFM4U8BUSFTQVVhV4FZsVvRXgFgMWJhZJFmwWjxayFtYW+hcdF0EXZReJF64X0hf3GBsYQBhlGIoYrxjVGPoZIBlFGWsZkRm3Gd0aBBoqGlEadxqeGsUa7BsUGzsbYxuKG7Ib2hwCHCocUhx7HKMczBz1HR4dRx1wHZkdwx3sHhYeQB5qHpQevh7pHxMfPh9pH5Qfvx/qIBUgQSBsIJggxCDwIRwhSCF1IaEhziH7IiciVSKCIq8i3SMKIzgjZiOUI8Ij8CQfJE0kfCSrJNolCSU4JWgllyXHJfcmJyZXJocmtyboJxgnSSd6J6sn3CgNKD8ocSiiKNQpBik4KWspnSnQKgIqNSpoKpsqzysCKzYraSudK9EsBSw5LG4soizXLQwtQS12Last4S4WLkwugi63Lu4vJC9aL5Evxy/+MDUwbDCkMNsxEjFKMYIxujHyMioyYzKbMtQzDTNGM38zuDPxNCs0ZTSeNNg1EzVNNYc1wjX9Njc2cjauNuk3JDdgN5w31zgUOFA4jDjIOQU5Qjl/Obw5+To2OnQ6sjrvOy07azuqO+g8JzxlPKQ84z0iPWE9oT3gPiA+YD6gPuA/IT9hP6I/4kAjQGRApkDnQSlBakGsQe5CMEJyQrVC90M6Q31DwEQDREdEikTORRJFVUWaRd5GIkZnRqtG8Ec1R3tHwEgFSEtIkUjXSR1JY0mpSfBKN0p9SsRLDEtTS5pL4kwqTHJMuk0CTUpNk03cTiVObk63TwBPSU+TT91QJ1BxULtRBlFQUZtR5lIxUnxSx1MTU19TqlP2VEJUj1TbVShVdVXCVg9WXFapVvdXRFeSV+BYL1h9WMtZGllpWbhaB1pWWqZa9VtFW5Vb5Vw1XIZc1l0nXXhdyV4aXmxevV8PX2Ffs2AFYFdgqmD8YU9homH1YklinGLwY0Njl2PrZEBklGTpZT1lkmXnZj1mkmboZz1nk2fpaD9olmjsaUNpmmnxakhqn2r3a09rp2v/bFdsr20IbWBtuW4SbmtuxG8eb3hv0XArcIZw4HE6cZVx8HJLcqZzAXNdc7h0FHRwdMx1KHWFdeF2Pnabdvh3VnezeBF4bnjMeSp5iXnnekZ6pXsEe2N7wnwhfIF84X1BfaF+AX5ifsJ/I3+Ef+WAR4CogQqBa4HNgjCCkoL0g1eDuoQdhICE44VHhauGDoZyhteHO4efiASIaYjOiTOJmYn+imSKyoswi5aL/IxjjMqNMY2Yjf+OZo7OjzaPnpAGkG6Q1pE/kaiSEZJ6kuOTTZO2lCCUipT0lV+VyZY0lp+XCpd1l+CYTJi4mSSZkJn8mmia1ZtCm6+cHJyJnPedZJ3SnkCerp8dn4uf+qBpoNihR6G2oiailqMGo3aj5qRWpMelOKWpphqmi6b9p26n4KhSqMSpN6mpqhyqj6sCq3Wr6axcrNCtRK24ri2uoa8Wr4uwALB1sOqxYLHWskuywrM4s660JbSctRO1irYBtnm28Ldot+C4WbjRuUq5wro7urW7LrunvCG8m70VvY++Cr6Evv+/er/1wHDA7MFnwePCX8Lbw1jD1MRRxM7FS8XIxkbGw8dBx7/IPci8yTrJuco4yrfLNsu2zDXMtc01zbXONs62zzfPuNA50LrRPNG+0j/SwdNE08bUSdTL1U7V0dZV1tjXXNfg2GTY6Nls2fHadtr724DcBdyK3RDdlt4c3qLfKd+v4DbgveFE4cziU+Lb42Pj6+Rz5PzlhOYN5pbnH+ep6DLovOlG6dDqW+rl63Dr++yG7RHtnO4o7rTvQO/M8Fjw5fFy8f/yjPMZ86f0NPTC9VD13vZt9vv3ivgZ+Kj5OPnH+lf65/t3/Af8mP0p/br+S/7c/23//2Rlc2MAAAAAAAAALklFQyA2MTk2Ni0yLTEgRGVmYXVsdCBSR0IgQ29sb3VyIFNwYWNlIC0gc1JHQgAAAAAAAAAAAAAAAAAAAAAAAAAAAAAAAAAAAAAAAAAAAAAAAAAAAAAAAAAAAAAAAAAAAAAAAAAAAAAAAAAAAAAAAAAAAAAAAAAAAAAAAABYWVogAAAAAAAAYpkAALeFAAAY2lhZWiAAAAAAAAAAAABQAAAAAAAAbWVhcwAAAAAAAAABAAAAAAAAAAAAAAAAAAAAAAAAAAAAAAACWFlaIAAAAAAAAAMWAAADMwAAAqRYWVogAAAAAAAAb6IAADj1AAADkHNpZyAAAAAAQ1JUIGRlc2MAAAAAAAAALVJlZmVyZW5jZSBWaWV3aW5nIENvbmRpdGlvbiBpbiBJRUMgNjE5NjYtMi0xAAAAAAAAAAAAAAAAAAAAAAAAAAAAAAAAAAAAAAAAAAAAAAAAAAAAAAAAAAAAAAAAAAAAAAAAAAAAAAAAAAAAAAAAAAAAAAAAAAAAAAAAAABYWVogAAAAAAAA9tYAAQAAAADTLXRleHQAAAAAQ29weXJpZ2h0IEludGVybmF0aW9uYWwgQ29sb3IgQ29uc29ydGl1bSwgMjAwOQAAc2YzMgAAAAAAAQxEAAAF3///8yYAAAeUAAD9j///+6H///2iAAAD2wAAwHX/2wBDAAUDBAQEAwUEBAQFBQUGBwwIBwcHBw8LCwkMEQ8SEhEPERETFhwXExQaFRERGCEYGh0dHx8fExciJCIeJBweHx7/2wBDAQUFBQcGBw4ICA4eFBEUHh4eHh4eHh4eHh4eHh4eHh4eHh4eHh4eHh4eHh4eHh4eHh4eHh4eHh4eHh4eHh4eHh7/wAARCAF+AgADASIAAhEBAxEB/8QAHAAAAQUBAQEAAAAAAAAAAAAABQECAwQGBwAI/8QAPBAAAQMDAwIFAgQFAwQCAwEAAQIDEQAEIQUSMUFRBhMiYXEygRSRobEHI0LB0RVS4SRi8PEWMzRDcoL/xAAbAQACAwEBAQAAAAAAAAAAAAACBAEDBQAGB//EADYRAAEEAQMCBAMHBAMAAwAAAAEAAgMRIQQSMUFRBRMi8DJhcRSBkaGxwfEGI9HhFTNCJFJy/9oADAMBAAIRAxEAPwD6M3jf0HQjqfakCsiFYI71BMAcT0NNUSFGVAzTe0chQ7IU4dBEiZHtzSoclWRPsKr7wP6pzwK9ugcYPI71xuhuQkOFEK0VgqCcRxTHFp3eqI55qALknaKbEyPaJ5qr1BWEDgqVSgCTwPc01RQOpEZxTUDcJ6ngEV4pJ/p57jmja8UKXeW48rynCVBQMzia9vgk5mcxTRgAQO9NI5yAOZ70XJwuDKFBLv7kHoIpSoyZUce9RJV0ImOhrwWU54zg0QoDCiqUgUQTCiRFPbODzkc1BOcmEintqJwN6iegHNA+uqkDghTzEZ5p2+IE8UgZUlP82ED3Ofypi37a3bUtZCQkbiVmABVD3NIsq4dlIneqeVCO1So59ZCB/wD1ms3qPjCxtwsNqU4oI3J2iEq9prOat4w1FxLqLJkNDYk7gJUgnoaW89oPBRAOOV1Nu40u3a3OpdfPcnYj/NBdT8VaRbhS/NtmG0r2kIlRB965ncW3iXVl3CXEPKSVIJG4gK/7knv7VcY8F3rrinbp8SXgsZyUjoQMVAke4+kfjgLto3co1f8A8QLRDhQw086Q75aiSB9wOtA3fHd++8gW9skArVwknegDkH5orZeDNPaUlS0KWlLhWncrgnpRy10jTbdKQ1atJKMpxkHvVEUbzVu599lwdH/5CwStT8VXztutkPEELXKQRIPCT2NS2/h/X7lKFOuKQQ0VAuK+lR5B5x7V0ZttCBgD8qelMCYGPeij04YKcbQB9HhYNnwVcOMpS7cgQzsSQSdhPJ96vjwRYqQUOLWpJCeDEbe3zWtAJJgAA09YgEwIPSKsjjaLoLnSOPVZz/4tpSSsqtwvcsLIUeo7VZGi6cncfwrPqVuUdv8AV3omvcCRA9qVIlO0mT1q1rGtB29UDXOo2qTel2YghhnB3fQOe9SCytUeoMtpPskDNWVKKUypQjtWc8SauvytmnPOKWlQLqmRMJ65/wAUD3hgJ6KaJRksWrfqLaE4OcVVff0lEJdetkjjJHFYLRtVf1bUnmLebxq2cUl0+rd7Tu4pHfDOqfi7m4U6wxbOKKwla8p+TSz5XObbGo/LA+Irarv9AVg3VoQoxO4Z9qcU6I+ChK7NwqwRI/UVxl1Fva6imx/1tpamTuJSklCBPE/3rQWHhm7esgpoouZSra6y9hU8H5oGyueQDX++3KJ8LRwV0d7RdMfSd1swsKIKgkckVFceGtJeyq1HqWFKgkSRxXNF6jfeFnknU7p5kOqDbQcdIBjkj3itl4P8XW+qXbjH41LqEJSASmJUeRPBirmyD/1SrkhLLLThXHfBulKWSPMB8wrMGZP3oXdeB2PS2m6WE7yVCMKB/pPtW53dATEc9KjUCpRgmrfKZI74UveQVzq68F36WghF9uhBC1CUlYH0p+B9qHq0TxMzvPmOStseYptRkFP0pT7V1IpCjGQZ601SEqJ3TPcVB07TYPCN0xqqXOWNU8TWCVh8vEhtLi5RuCAP6Pc1et/Gl80pX4yzSE70kjgJbPUkda3KrdCm4UkEe4qvcaTYPIKXGGzuMnHMcUIicCHNd+6je1xohBrPxZp1wQFoeZU45tSOZHeOgolbXOl6gkKauWXklRSkKVtzVK98Iae+pakKW2tagpW08x09qCXXg++aeS5aupP8wqECAhMdJ61ad4aSMnp7pQ7y7Wus7RplRU80pzOPViiaLlhQIT6IAkGuYWzviDSC0g/iAlG+EFUpjMKVRKz8ZpbaT+PYSsBuS4lEKcVMGBVTSRYOKUGLaxdBklBII/7fakSsLHuRmaz9prWlXW4IvAy4hIUoLMATmCeKLMuKQlJPrSRMgzI71fG/cLCW2m1Kw64w95jZAI4NHrW9ZvW4XCXh+RrOqcQsAj8q8hwpO0SY7UJIAsKA7acrUoZE71CINKtC1qMDETQ6y1p9ENvNtupHAUM/nRJvW7cgH8NB4gGuJPNYTALbwU+yZUX8J6yYqrrq0OXRSIlIiRxUz2uqUCltpKBEGBk0OfUhwEyTPeuBJPZC7aQhtwohREDFV1EHcqAMZq2+gAlJAg8TVcgboiSe9SAABfVLSNs0oJQpueB2AJmvApxnHJEVJsAcmCSf2qMohaeMiIUKktPa6QigAaSKXuJAKhA7TTyRs9XXGKRaYiASBilQ2FBUmDyarcHA49/JRdGwvE5mNyeIqVIbKZAyeYHFIkpUgpEE8CRSkEI7TUkbhXPdSLC8ZCVJkZP1RFPBAQBiBk+2aakqUNu07ievFKFKSrdgD/dQHobRH6K/gJkjmmpUAkJATMYNMOFHr2+KWNuQmEngxWr0WmaPyUoUkjoAcZryVJnAjtiokEbu08YpUmAcHPvzXONDC4c8KXcD0Ar2+M4IqABW7mAOKkAJSJE4n5oQCTlc5xvCmEK6x2r2ZgA85mmAkCc7j3FJJnk5zk0GWhWZK8s8gDHtUeSSCP7U5JUcwPk0qApZwJgULJASRSiyoT9RgyI5pEtLcwgSCck9KsKKGwVLUISJ9hQfVvElraAobWhxRTvQBhKvv3oX6ljBlCecIqlhCUy6rcOw71Tv/EFlYIAKwklWw7cwfesRquualqa3GGZAUgLQ2mQoH2MZ706y8PajevKdfX5CHAhe6PUSOihxShmfJIW2rBGG/EVZ1jxdeLDabVpLe90tzuknnINB2GvEGqIadUHiAlad6p3DtM8itrYeH9PtwZZSpRVvJVnPei6GUAbQn3FR5APrOffVRvrhYPwz4UeUvzNS9KSjapCTInuJ61sbLR7G22FthG9Kdu48mrsckz7U9IKkmeRipiY1raAtQXuIq03y0JSdoioisBHpHtmnbDwkx7VGUECOk0bGDaqzyovNUZAI54pm8pJIjPM1KWTknmaUMGM5g8jNE0ECrtRik5pwq9XUU/eN2DioCFtkJIPWvIkCcdxRbLIR88qyPViIPtTlQG5OY4mokLgAHJPSlWQFFKZA7e9CBzSEZCarKiqRPFKCAARJ74pm1SpEwRxSjdwo4mPmpAoISKCg1KzTfWa2VrdQlYhWxUH86xD18dMvHNMur0sW/mS2oI3LKexV0HNdAA9O0TPFYT+JGnEoRdA7RG0561VJCCLTEFA13QK88daDo7yrXQ7YXVwuStwynImSepPzWQuvHF5rV8+5eouU2SUlKAWpSFdfSOMVR1PTWGYu1I2k3Ck+YcE5TMUcvbPTNOSbdDZe85ou7kGY3DHHakHTFzjuNAewnIxEzJyhar7wy9Z+a4q88xJKSUsxPG3njNTWXiRywfQ94fvnnGEOAOMuN7QsR0n3qsww2225prFil8tKU4/dOyopnhKUjk+5rNnUGdP8RNi4dSlITLbTeElXEE8TSxe1p5q89f8AKFwEjs2utK8R+GPEmktp11lslS9mGyShfUTGPmjFtpo07QVI0Zhm8t1IlpSU5Hv71ypV4ytxy3FqG1EBwKbI2Emc/Oa3v8Plu/j2dPQ4tLTZJCdxI98Uzp5RK4bff+f2VUzW7bHHZb/QLW7tbby7m5W9OUpI+jHE9aKAcAwD0NObRtAxzn3pVAicZNad0KWc7ChWgFUgjmkSAVT2M08pIAGM9aUA7pEEckxUglRuHKQpA4ilEgfalIAGBg5r3QjInvR11Q2LTT0UIke9eMGAacDAgJ/4ppB37yMn8qNgFZUHOBymLabcTCkg98T9qG6h4e0+6JKmUpUUbNyRBA9qLHk8ClGRyZOPigcy8LgaJWB1PwY8204qxeSr0gJbWPT/AP0Y5qiq517R3HFFbyUKdSkqKZ3CMhI4ArpeABI+1Net0OABaArGQRNUugPLSQrBKCCCsppfi5i4V5N5bhLnmFILWdoA5V/xWgs7m1u2Q5ZXDbqVEjPMih2o+FrB8hbSPKUCVbU/SVHqRWautH1fSlB1uXG2WlQ6CfSo9An+9cA9rSHZUu2OB2rfpVtgQUmeSKmS9CAVKAjORIrDaZ4ru7ceVqDXmJQ2nBMuEq79q01hqNjfym2eAWkDe2rG09qlr2lpVb4i3KL/AIiEk85pFPE8cftVHctIAWk84pinSlRTAB6zRF1YVVEcq6XgogH1GM9KYl0c7xmqJdhZJEHFO8xflwMz1NBQPqVZeeaVwFRBPPXmIpqjP0iecmoEOkJBCiRxnrU4eSpKZUAQYipIAKjbYSAr2T/V7dq8r0kgSAenU02UkHbnOQaaokAkCBzmoN7LCguaQAVKgSogAnHJFI2doJJzEDNNDqgOOlNWpIUCSUzxUHa0WP8AS6w2qUw3F4Ddgn4pT75E4657UxRBHmBXH50qVKEk8AjnFc2zgqfUGmld3BCQZJ+8k04KlMgfn+lRb5jJJjGOK8pUA9ZPTg9q07PZa4q1JKSqCI4pVqEiQk5gAVFvgkbpjieKUqJ28Qc1BFC7QghpTwoTmPcVNIAAlPGJqtvAnkH5ppUdx5zxXAZ5wotqslXQn7CkSSeAeeB0pEIVu3qMiqWr6za6cNm6XiNyWxyrP6VRJI1gOeEV7jQ5RJUJyroOKC6v4ls7NKksy8UK2qS2Pp+ayeq+ILvU1qZalDbwOxOUkKHv1zVvTfDl3fK8+7CmkOIAUFYcBHxWd5xL8GwrmsY1tyKjqerajqbxCd5Q295awzJEEdU9e1EdG8K3lwpC79XlpSpUtjIWD+1auw0m0s2gUNgHbBWUyo/eryAAU7Tj9a4RD4ndef8ACh8wa2mhD7DSLSybQ200ElIMEiSPae1WQgDgAYgVa75MxmahUBwcmrC1rUu47l5QhIgRPNMgwcmTmnpBAIkRXj0Jj4qyghukgAnqT196XgYE9/amk9jJ+KVKiVZj79KAu6WrGm8JRxuKqRMESDGK8RI2GD701s5iIA71IdtFLrCcexJpqwcEwK8cAkiR80z6gSeelEAeVFik5e1aSDk5qtwdp5jrU7YkbjTHmyo4InkVLDf0U2Kwq/vJ/wAVYC0lIkj71UUrO1XekUrJAOB0rmgONgYVe5Xm1AgkTg9qXkwYj2qC2IKIE9pNSFSNwlXHauo8osEUl3CJPNAPFvlL0V4ugkAjjpmneKl6gWG/wAMbwVqSqCkDsOs0D1XX022muruVWz7YgAuDYQZj1A+/7VVIbBCJjeq5rrNgb7S1NhRWrc4oJ6/WKG6QLW8sLhtpTjL5TIX1SkdBPE1rXdZ0gKU6vT127uT5jPYnoMjNAnLfQEvuLa1e+t3HAVlJaEg+/tWNNtaQ6g7utOOQDDhSoa68dNFzd2617y9ClAwCNsRP3rPKtbS4cuH1W/mNMMl0oWCMdc9K6HZ+HNHvNNSl3U31JPrS4pB9ROZ4iKePCLDdk9fI1hx62eHlrhj0rHaO1KCFriZn4b0zWEBkaCdoysx4bsNJudGJs2y0vygpRPJUeea6t/DWybbU+4PUtMImM1k9KZ0S2DTLjinfLIENhKcJ9usVvLW7Tp9gtem2JDapWlbqtqTPtzW3p427vMA4VOpeSC0DC1wgEgkV4kAEmh+h35vbBLq0KQuPVuRtk+wPSrZUoqmJBp9ptZzzt6LylQZKZninA9ZIimLknGIpwnaPfgUTQQeEH3JQARJ4FISDxnpXlnHBHekEwdwyan5dFBsrwPJ95p0jtSQNpO0E0mQY5qDhSbAtKoGAAUgmkAI9O4T3pQPVBgkftSgwRHSpFDnqhJz9U2IwOPmkDqA4UqVBNPgkSRkdqj8oFW4jI6mj+SkZOVNIwExHFROBKiSoA4/Ol3RKIGRzTMKOAQBiaEguwEF8hCdV8P2N+hzc1sWSCVIwVex71lrvw/qFg9vaPms+b5h2mEoAEcdSa6GCUgCIBMfNLtSvB7UDo2u55RsJAoFYHQ/FN4yltN8kuNrKitT2CAP9o5rU2F5Z6g22WVALUmfKX9X5UmqaDZ3u5RQWniI8xGFCsnqWi6jpa1O2wcU0pIQjy8rI7k9MVSI5G4OQpJ3YPVbJ1pSVQEj4NVipQA6Z47UD0nxK81LF6C+gKDSAkSoHuVcHFaW3ctL5pTto8HEgwSnBBq0E3RNKl7HEfIqsF7twBCSkjHFSIdSEyYHU9c01xhTe8pJJ98UwFJCN56ZM0Yy31cqj1DlWPOKEHAxipEr3Agjb196rZKDtO5PcmvNkFIIkdOeaCqwAj9W6zwrKXUjJV8emaelQEqPHWetVUkpGxxUJAmes1NuSoAAz/eqi11ClLbyK4UoO1PpVjpjmvKUvcneoRzFMCxuIUIHTPNKuPMnbKdvFcWenaCoNOCt7SZCpSZxmlBwnI9vavIMq4VIMikMCQDycdxWne4FapN8JQIHqHtAzToCcBZJpsoHpAI4OKlbbLhOCkA9q4m25XE3g4TAl1whKRPepH3LWzaLj7qG0CPUo4FVdZ1a20tr+YrateEBRwT/asRqmp3WpXHr80tlRaU0iFpGMEJHzSE+q2muiKOO0Y8QeJ3U+Yi0Rt8sSsrSfWkmBBHAoTp2kX2puq2lSG0L3tuLO5EexOe/5UY8PeFdikP3hIWlIQEJVKVJ6bp/atfasNsNhtCAlKRgCIFLgGdtuCN0jW4aEI0jw/Zacn0o3KCt0rzHx2owkpHpECekc08gQRH2qJR2kDJ+KvIt1hLl95pTQZEmY6V5QTgkQeOaRJScTmeleUdshRAI964gA2Vw6heOJI6ZqJ7zFIhMJVzMcUoKV5mROBNe2+/1frUOO7HRSOVE2F8LVMD7U8iRxSmR3xTW4PP3NAwbRSh2TaXaRkxHal9Ke33pDBSaauCNswZmiFVS68p6iB0+KQRBma8NsgZJryiEj4qzFZU5pMKkcQeKQkZwPaoHH2kf1AnqKpvXigDsAAmJqLNcIbKJ7gE5PNQvPoQD0x0oUblR3SomOBUXnEp3AyOtTgWFO7CuKdRMhQB70wvweRPtVEuqIG0gT+tIXDmVcjBoGn02OFUCeVd/EymCZ+9RpuCCSIqgt3aYkxPXrSF5O/wBUzHIqTJYC63K8t0qHqVI7UG1rTNP1FhbV6w0+g5KVpBmrbj+DCSr8qoIe3vkEDb3ms7Wa6ON4iA+LCuY1wG7shGoeHbB9pG1lLYRAASAkAUB1LwWxePF1u6cZ3iDsAMjsa2d5coCNiCCT361HZNFYSoyAT+fxWe6PT6N/myH01+f06q+N0sh2tWc0zwfdFza5qzwtvLDbgSkA7B0HatOs2zTCLRpoC3QgNob6BMYFLdPpQ0G29ojEDNUfUsha/pHvXjfEdRqfF5w2BtNGfp7+S0WBunZbzkoZfeEtOuWtiHLhkEyC05sjOR7CtLpVpbWyGwQp3aISpwlRH51W8wxgbkk9+Knadhe0dp7V9K0cQbGMdFgzTO32SjrN1GCBmrBuciJjoKCIc2AKkRMVOh6DkR3JrQa3CpLieUZQ+gDJgdKch5B/qkig4cChBV1nIpfMJJA4xFc0dlJItGkqKj9sUoIJkYNCW7hQjarjpUyLw/1iPjrUu7KQ9EgqRKoEdK8r6uarouEKHOY61JuO2UkGa4kgYU7cKURMzGMHvXk/UAOKYIAkRH96XJ4JJrr4XAUlWTuhNeSQDJExSQQZEeoZpUlJGAqesGoDC4WVBaehXjBhRCQqmgevjkU85MSD80gwVGibTAe6Dk5TIkj05HFTJIg7R96aCJM0rYhPpmeldk56KSzNgpQVAExA69abs3pKTEHvTxO0pE9yK8jAwk56EcVwv70NG8lAtZ8OW11lpttKkmQkphBPcgVkXmtS0K5StJWE27ZKSkbUFXQCOa6eknIIxxVS9tWLpvynWkrREwoT96olaCRXKtY+sdCs7oviBi7Hl3vofSBuf27UEngUVcYSraqACRII4NZXXfDLlos3VqA42F73Nw3KgDgDgj5qv4f1+8sShvUD/KUC44XVAbEjHpHSqmueB6+UJhBNLUJTAhQIiZivKTA9JkRxUzDjN/ZB9le9pWUzgioHbdbakzEDOOD71cScJZ7SBlSkKVhYIxHtTE70HKjBFQpc2IKXQNnTmaV1a0RKkxwIFc4nkH9lW3aBZVpDgJCoycK6ipQoQCASaH/iNrhztUc54mntvnaPVzEpA96qLS62cd1Y3b0KNDC5+ojjEV4TtKsT7fNLBCCCM+wqZpASnceYwIpwvGe4Wu40vNskpKlnaPjmg3iLxC1Zn8LbuNpuFxAUPT8fNUvE3iUs77S0WPOSJVuSYIjIT3NAdHsbnUrpJaK026lBaVoO4NkDINJTzbgQDSsDBglMtW73WXvSHFJuQCSFBSW17v6p6RW60TRLexT5yglT6vrWBgn46VY0jSmLBuENpC1CVmPrPeiafSkAnMVAaGUAhe/oE1IAQYEdQDT8E7oie1eG4nJ/SkMqhJMEiiBzfVVX2SrJkZP3qJUE7hx2p6yUk1GpREd+wqQSSowvb1AjABjhNNCtxJmRHBrzmEndJ++ahS6ATgEdxU2SzKmhdqX1KUDSFZU5CuYxFeCgR2FN69RUbQbU9F5SycYOMivNII5VM9qYdoBlJGee9eC0hKj2+1cW5UUBhTOEE/pUYVBg4FDrvVG2k4kqA4HFDl6g673GckHFSLcuPyRq4vUIPo9Rqm9duK5UAk8Qao+e0rhYUe01Uu75tKTCkwOP8UtPq2adtvPCHa4mgrxV6iJJPSolOz6Ujd80LsV3l+8pNvtASZJJ4o0q2caZnehSx0FIaXxVupcdraA4PQq1+nLMlViqAon0niKYXPVCefbrTFndO1QwZIIqMKIk/wBVMmc8BL0OqlUsiBMAZ4qNxSVJElXxTd5PMT7H9KQblJJIA6VSZiPi4KNrTdALwggZkjqa8pUHaEzjrS7VJgkiI6jihOp3Smm1EKgwRPaqm61m07CDXNdlZ5R7Kdy8CVlEwonvxUbJfeVtQkBPVURQ6ytluL/EXC1pQcgHk+9HtGSzeXDjbr5QlKRCU4kV5TS+LmacRxtt5JrjH4rQ+yhrdz+FAixQGVOqWV7Y9gKiN0VFTSIIP6Vqrmxs3dP/AA6EbUnIViQfms4/YOWrgbcSRGUqA5+9Xa7wjWaiZjpH2Pke/KFmpZG0hgVFLM+rMk5zFSkBMpEn2IxU6mlFUkwBxIqEISAkgntW9o9BHpwNrfl0SE+oc48pqVkdD2xT2lEgyqM4pdiiD07V5AAyVGTFbIeWgDok3GzRCnSs7RMmelP8xQTJ6UxaAeSofFeEEZUTGYq2IucCbUUVKHYPJHcd6kbcUUDacA5mqxV1jjma8lW0zKjPSrNzi4KG801XvN2qABzxM80/zyAU5NDyrBPOc+1P80ZSkyAKYLxVlQ7cUSQ9xBjp81O2+tCpSZIHBNB23AE4kGZqwm4IPU1L7AUdMo0i+SojekA/pVlK0qTIzPUGgzTqTykTUqXIOJ96EXVhECSi4VCh/t+aQk7ZEiqDF4NwStHwRVwEFMgz2qReLRB4c2gpUqJI4jvTx6pM/FQboJgipmz6eJqN3dSPThIkH6iEkzSg+r2nmkBHBkGZx1pwwoyJ5+1cXVwENHonD1KBgRHWlJCfqj3pggpBPFOzz/TNSHdlxynheYGRTSZ9MRjtSFRgCPtSHJ5GJFQQHZUON8qNSQcc4jisx4i8Nt3qHXLYlpxz/wC1QElXt7VrAkwcdutIEYMDqSIoCw7apEATgFcqsr3UdG1Mlai0taynY4SopQBzAHtW503UrbV7RL7I8tRP0Lgb+sip9Z0e3vmj6Qh0YDiR6h3z2rA6gtzQdSbQpSGnDCLeSVq2zBVFIObLGLJx75QgB4o8rbXDKiCIMTKfiqxC9sgkhJivaHrLOotJQ45/MT6A4v0B1XGB9qtvs+XKwrb2BFNOaC3aVS9hZaoLO4wAoKEZj+9MU44gL3FRJGMfTVh1tSiooBke3NVnG45WQo5g8gUFFzfSa9hCSb55WvQVIKSuCSDisd4w8TpQ27bW76FeWCl4LlJI4hJ75p3jDXkJadtWFbmydjym17Vpkxg/3oFo+k3epX4bcU6Nm7+YQFIUgnie9VajUSOO1uP199VuMzkhTeH9NvdQukjc6hptRKHkuBYSCB6TjnmujadZM2jAbZaQgTOBzUel6fb2Vulm2bS2hI4GPvV5UITjp35pljPKaATaB8oelJUM8COgrwXJmSr7cU3KgYIBPM07AxkGJmhPKDFJQogYJIUKVS/SCQf3piTtJBVkjmo1khSoUMjBmpecWAoAICct0CIJ9qjUsbgOevzUS4UnPpjOOKahB8yd8/4qKzZKmjamO1xW0kZH5VWLeyE7lGOpNSuJgkhX61AVCc9uvaopy4gp4WSlShnMU0OEE7pgjvTAtKRnAOYiqN5qLbSClsblSaIW4bVJICvXFyhpErMdaC3upLcJbbKgJzHWqbzrjqdzzmOZ/tVS4uw2rY1gjHzROLW5PBQniwFO4tCSVumVGZE1SurwGRugA8AYqjcXB3ArUSMg9qHOPOOOeWgklRhMHBpGXWFrT8uiMMJwP5RFzUVo/wDqlSphITyftU9l4e1VxxFxqCzZsLBVClAq5429zVjSba30ttN7eDzHcpSmRAx0/wA0N1zxN5tyE74KBhIXJgV4vxTWxamQMJ46futSDTEC1q3Lm3sEeTbNoQ3yqMz70OuPEbCVRyomBNc/X4jurq58pElW45OfvRTTG22ll+5UVkZAKv2oNT4y+MtbAK+79Ew3SWaetcLjzyHGglEj1mOfeleeYaUFLTIKZUd1Anr8MpAbBTIgicVRD11dFO1JjkqGBSP/ACk7jgkfLsi+xsDuFp3Hk+YgJSDIB4xVe8TerT/06gqTOTx7UFstXcbdU2W1q2HCoMGi9nqRcCim3KDxEGhfJNMwNlec+8IxEITbWq3bB7y0h9BSSPUUnrSahp6HUNOFAWVRAJ5g9alsHg4raYeUkeuSYivW7xcvEN7cSQOwirotN5ZsO+LGO/XPvKBz9wNhVr+1ebc8pR3CJMcfFLYp/CXTa1elI5xmaOiwu3EL3KST/ujkVVuNPbUyhplUOAStRyTW9pPCI9M7cwEHuffRZ0sjpAKPCINrJUPVgjmrTTrK0BtaUrxknmh6SG2G0kK9IAzTdxDgMGK9IIxi/drNyLtW9Q021daaNkF+ZB81JUNoPTb/AM0CdaAUUgQEmtIy6UoltQPU45qnqjLak+ckFLgGQMTVzpgB6+ip8kuOOUGS3tUCDI6yKftSMde8VOW4SVHI29+KiaKFqjdM/rSz9bC0hjnKwaWUBMCDncZBH5U0pI3dR0mrrbKVqCd5THPamXTSUuJShQjgT1qTq4BYDuP1XGGVowFS2HmOe4pNnqyTNWHUKTEjFNSlSgVDiYplsrCPScFU0QchVyDwox1x1puAJBMn2qVQlc/lApFNOBPmGOOJzQy6hsfx4Uhj3Y5TJURJnPJApxUFQMknpTZBwSJimlZwojpTbXNAUOY3gqy04tCSASB71Zae9PqyPmqCXMc07elAxgHNXeY2uEDW1hFUKCsxHYTUrS1pVu3YOY7GhjTqpgEZ4qwh+TFS1t8ZVZrICNW7qXAk8HtVvp1mgjTkpkGIGIq7bXQwhRI6VEjRwETHN4KII2jMQBS8iO55qLcQkRM1I0TEng9qBtUQjrcU8jaMHPMCvAwmCZkZApsjcSD0zTiZT6RXAXhScWLXsHMZ+aYR26ckU8gTgk0xRRHtUOAB4QnJylBgGZHXinJJiQahcJJhJA/vTyYMFQUO9EAbQUByVKQAOevXihes6Taakypt5pKlD6XABuT8GiO4lEKM5xFeMQQUniOarMe/FI2/Jcx1LTXtEulLbaaCEp2sj1KK1TO72PNaTQdYavU/hblai+2YLy07UrI6CetHb61avLdxl9JymAoGCn3Fc+1rT16U+lZSktJ3KRvWSXV4zA60s2ExO4UlxlC2rzZQpRKZBOSOKhLTbg9UpUv34ql4c1r8ak2l4sLuM+tKYSP+0+4miTifLcJ7CY6mpALc91Q4NBFrC6NZ3eq6gGVlIeSFpdDrUBScQruVV0zRrFixtEsMNhCUmYB61T0PTW9PsUNtyQckkz+vai7aSMzAiQD0oYRtGTlbDy7qpwQjP96YpXqPAA5FKDmAc9ppq5IIJEdcU013U8qrKVTkBUYpin04AIMCq7igSpInp9qhKieFSkc4rrvJC5w4yrKnpJOfio1veoFCs+4qFSlJTBVTXASTtVGMH+1cWisBEbzlOU8rrPPSnBcHcCAemarrSSoREAzTwkxHb2ihvbmuVIFi1Ot6eQO3zUC3AASVADvSOKBTuJHHBoDqeob3ShtUITjtnvUVkEFc0HqptR1ILSW2lY9+lClPwYUoKXPpSKpPvwTsVuUJk1BYFRLr724obGT79hSGq1ToY3PIAr9f9o4YvMICJOtXTyQpx1LTasAzMDvioHrBTzot7VxTgIkqWNoEdaova2++4lNuidg2gBM/n2ow2p1u2bdSv1LEKnJFeOf43qJZeBjp8lrfZIwK6quvSrZlgG4dedXtkoQIApWnLG3tyRbNIcI9Kv6gO005DhAdCnx5pkekxP8AxQq4YVcrWE+aQEzPArNl1up1By41xX8K6OBjaFIdrOo3V24lqzbddXJACY5+TisxqPhLW3tSF00hI8wDzN1wJSPit9Y/h22di5RAyOINXELs94CF+YkAGTE+9JCeTTZ2g3z3RvIfglAR4dcatEvWtq+diJ3KcSrcexk0Eu0a4kBDWm3SlCVQBIgdZ/tXQmHUtola5QDGTwKj1C7buGkGyV5rpc8s7TgdyT7U4ZI5GebtANcVk3+iAOLPSTfzXPUL8QoXbh/R71XnDBCRj3Pb71tNPtdRe0pDz6E27iYKWiZ/ardrbXT92u3WQw2jlU4PuBR61dtrVpLG9pa0jB6/+6Y0GkdKSXMDWkfn9FE0waBSgsChNs0hSApJ+r0de9R3CWQskEblnd71HdXP84oZcjccAd/aoGkvJUFFG1QUQd+Ce9ORamZ4MTm5HXt+HVUkAHdfKuWrpcUUNMgEjlQgfM1fs2WGVKCEoQVZJmJNVbRu7eKgltKU/EEU8tXHnFJCChIx3PetDSRmJoc42b7e/wAeVQ914RNm7StxTQBIAlW0VW1S8bt2lANqjuBMGvOvqQ2VpOwpT9MUOVqaNqy8hTg6Rgimf+TZdXnpaoMPVeavf507CoEQDwJqd1xKnQghRUICoqu4+0ppuG9qOQmM1NbsG6cQ+VbAgH0jG72rUh1FtpxSz43E2r5KGGgGoJOMZmom1OK9VygBB6EVPbwGx6dpHSeKW7tmnbZRcJKowCeKsMpc2xwhqiEH1B7ZclppslJEynP2qFlsoDzjjS2wMJBGatOhLcKbKd22OZIqVFqrbucdLhORiADWLNo5ZSXDPbHFpxszYxXdMLRDKXAvaRwDTGVtpelaCSrjFUdYuHRbKMEuSNgB5NUrTWzcXCGmrd9bjZ8swjk+3tSGqhAe0DpX39Fa3Iu0evy3sIKP5kSMxQN7UPwzot3HBxJJHfijAZfeYJuhCs4HShGo6M9du4SXGZHqkAikJH+IQybgfTiv4UR+SQQ8KBOtMFW1IGMzkVFqWu21sm3N26pCnTA9OB1zHH3oYPCeofjCX7xLLG4+pWVR8CrP+joSz5Fw4u5ChhUQB896ydZqpnmtU+/lwmfKjH/Wrlvqdu+028y4l1lwShxJwoe1XN+5GTAGTIobb6c20y3bM7Uttp2oCURAqdm3vEpMbXBHRUGm9L/Uetg9MVub81TJooXts4KuAbc9Rye9SJASAoEzyZqqyXUohYVBGOk1ZGEndO085r3PhXjjNbF/9XDkHosqfSujNdE9hRQ6HI4OKv2gS+SCsJWcpn9qFtn1lIlUYOP3qVkqJJCgQeoNbkOrYaaDf6pN0WL6q7uLailYlQMkg1bacSvIxNCkuKUTvjNWGSeAkpHtV1kkkKsDIsIzb3G07SZHarrTk+oQcUDZcHEn2mrdq/5S4XJE1zhYyjLtqLJyYiQcZpYJTBx1FRMupUncDyetPBEGDmqiBdKRkWnAjbIgmKRIz0npNJ0kfeK9Mkde4qfhyuxxWUkjzR0HSlTJVEfJpBBJATHSalCp5z7io5zeFNAnlNJ+JPPvSEnIyK8CYPQTTVqBOSCYx0irKJOEFgcJ2FdYjiqmqWDN6wtt1IiMEDKT3HvVhO+RKScdOlPkkQOcHNVlpz1Ugtrhcy1axf0u4WXd62klThcU5t8wx0HWtLoGrN6iz+GuVtC7H0hEnEA596La1pzWoMFtxI3gelShO34FYBxq8029cQC+EpWpx51tAAViAAef/VKeW5gvlFtacUupJPpkmSMRFPG6cxxApi4IAmE9YNOKiYG0/amAwcJpziF5xa0BICuufeo3HiSpKgc8fNKsFSZnPxUBG0wqI5EijDWldeU5KhKjnHNNX6STkznmvBUzwR2OK8FenGP7VBNggKaCaoiNpJI+K8gEc/aK8lIgERNRpKkzu4j8qiiSMcrlG6fVlRT+1PKvTO4Kgd6idO7gT3mhOr6h5KSw0oJJ5KelVvfsBIRsJvKfq90tCNjaZQTCjWauLpsPBDzu0EzAOTVe91JxpYbbyRO5RVyKHWeqsXCS284gqBzvTNeWk8dmlaWeWATwbC0BpWk32R21eS2tQCG4UqU7R0j86tItV37BYcaLSVpJ3d6FLdYd2LQraRiZx8iKe3f3I2NBxRTEJO7p81imZ786h5A79/r2TzQGgBoV3SNFLaVWtvdobU4sn+fCQr5PSpnEvMfyXU7kjhQEj5oY466wEvSvPYzIpf8AXD6fNRuAiZUBjqZrMklbfpq/yPZWeo55VzYG5cLagAYSSJCjzHtiobu3unP/AMNBlf8A+tJJJ/zVpOpWrgO8BURHqxnvS6Zq6WHg42Ep2Zkj6qgeWXCO85N8fj/pc0uOVnLpF62qC2oLThaCII9oqsbhbTgKiUqBkhY4rSXiU3lyt5pMKJlRBJg1T1MKfaS0pKBtMTtkn/FUOZE3BP8A+evP6FG144KCX12bgBhb3l+rduGD8Ua0V1bDbbSVQDmelZvUrTYnzN4A5JNDV+Irm1IY370J47VDWOe/cMfRc4mQbWhdLRqDXnneUhIEAjmr9s7ahO9tSFq5g1zSx1G5u2vMgRMkdTV9vXFMIU2ADIzn8q09LrHQ4cB172k5AeOq6Ew9Zeap1tn+bEggdqkTeF9K1qSBt4MSZrnbGuOofS6gmFfTBMDvWv05tFzpTdy26SpaiSpPB9orT0c8k9tByOR3+iWlYWi3o9p9y+q1WohUjJ6VSutQ/D2fnK3IXuj5E0+1X5TKGnHky4qCYirt9Y2zlqpDaIIMAjn5p92jkfpwWOOB1VHmC7IWeRqK5ecWkqRtyOPgVS0y9ZuAVPlxACiNpFaV/TWE6Y835R2qRtkckxj9a53ZaV4mTqjykoLluHU7pWAQD0g9vaqI9CdKWXbldHIXtOaWsttWsbS8/mqK+EDrE8GtAw7bqcO3AJ4FZDU9G1J2xV+G8oPkQU7ZI7ZqTRNO1TSxvuNQD6lp2hoJ4Pea1IDI2WiLH0/lUSAFpcDlaW7eZTMpeVu/qT89KHua2wFus+Y5uaVskp5NQ2q33Lhxm5cIS16ZH9RNTaii0uLY27iU7QQcYMjrWgaA9J/JUEWaVu0etXrPOCfqzBBqjc334Z9LDa/M3EBsTmgLzNy8FCzL6ti8eXIzWk0PQ1IWLi4cLlyRlR/p9vmlZpHcRjPdEBXxIc3b3epvbblvykNqkGeYo9p2kqt0qcQUndyTzUrrKmnNswnrHSrTL4CUjcDPHSapjYXktecrnvLB6VBcPi12lxGVYEc1WduLhaCW24RBBERPxRC5WwuVuFMDvQxV2lYhpSQgdaS1cWw09xr5KGSB9Uh93clEJVjsD/ehV1dlKoVzH6Vb1YNvIStP/wCREJM4oO5oGrP6d+LUZfU5hhJ5R3+a8hrtDJNMRDkLQiczbZwrTV6QZSPRHQ8VM3qKQd2xEpzxzWf8x6wC2HEFDkwQrMfaqDN5L5t3HVFSiYJ6VmjTvaNrSQQcpkBpskrYs3zawtbmIHTrSouG3EgeZ5c9/wC9ZK31G4bQlpQSQpUTHSrP4gRKlEExgT+VS50rKAcf3tVhtHJWpBLaXFJcbLcxIUJpLJ9C1KSIgK+wrI3GqpsnvwzwUFrTxET70U0zUmlthIISSMx0p3wvxGTQSiQ5H15tRPpTI02tHtTMk/btT7d4bxtJM0KRcOhMhXvnt8U9i+ClFKxCgea+m+G+Mxa4W277LD1EDoXC+FrNPsH9R3JsWlOOxO1ImahIU0tTbwKVgwoEQQaraLqj9i4l61eWknqkxNGtV8jUUqv7UkvH1OpOST1NboIf8KVDau1WtbjYqFKxzzRBLqSdwIINAkuCYCeKt2TxCthVMkkDtQ9K4Qj0lFUq3AdPink7swfc1C1t2gCSfenBckZPNVm3YVlqUq6QP80hM/SYnmBmkBzyKaXEAqBTgGJNSRZyoLfmvKXyETx+VNCgUcmeJikUfTu25PX2pjZBHpTE+1cbBBBQEkO2lTiQj6iacYVBBjtTELBUYkD461JMqBKRPAqOetqQQRymKRkRM/FA/FWkNX9qFFnzXUYQkqhJ6waPfUQopII9+KaoBXqKSAeAeDQ7LGVzXcpErE5JA6VImYBphggbeYjmnAn0nMp/UVU4Yp3P3psi8kp0yvp7CKhdSFYUCB79KkxtBjGPmoXVAzxIyZHaiHpyEYcfuTJjBz1+KQiM8rP6UwKSZKTAHOKVSgjgT2qxsm4XWFwxyvbjnI46VGVhRiIB49qRxR5HAHWoX3AhO/PHIHNCPS6lOCK6KvevhptRKwVDiayGp3JW6eTJPHWr+r3gdeXkbQIBoCm+LFz528BaANm05FKaqTbGdrcfRWxU947LOeIH3Gt4UrbAO4GQYrmrmvXCdUNvZKJgyVBOAD1NdJ8e63c6kEpV5ilOZWVZUQPesG81bWDTo8kArEqUI6D6Yrx0UbZHPeW89+/votQ+n0WaCL6b4reZIbFyVqScIWIx35rSWfiy0WpKX4YUcfUI+fauAa7q69N1RDraHFvKJ+onFWmb9y9ZDzmFEfTEgE1fN4TuaHHhCJ9riCvpO11a2eb8vzAUqGCcVJc2tippWy4LazENxKSO88iuCaXrurMFtlu7UtpOdi84/tWuY8U6gjTVqLDa3dpSSoEhIONwgjI57VkO8NMP9vBCYa7nK3r9jesXzKkagy5bESttJJ3Y7mIIovp1qtb6fNcIZByJPB96EeD03F9Ys3939Ckfy0qwVDvVm+eu0vraUEptykBJBO4mf2rLfLtdXFHp7z1Vu+ha17j1jaW6223pEgDaISPvyTQO/wBSbaKikhSj1HJoDqOqC3t/5rqfLTkSrrFZTVPEiHUqUl3bJjGDiqIo5pXbm8Wqnt3NyEX1i8Xclexw7RhQIxQ+20pT7hW4lLntJANB7bX2AQ064hKRKpHUVJb+IgswypJTJ5MQe1arNLKxtlUl7hgLVaPbhm2cShLiY+ods09LHlupNwhKGnIienzQjw/qDt5qTocdQBsElJIE+9aPWS24wwCopWMBIEhXf/3T32YCMnsbrv8AMqp8n9wXm165bUl1JTtKCRtjitx4OUBpCQ5IW2oiDwB/isdZaWFvpeQFC2IG1IJKkq6896PJuVWSFlKyltXpj4/vTegZ5M7pH3X4+wq5SXR7bRZ/Vbb8ai3dRMLiQn9RR63u0uKKWoIAxNYbTf8AqLcENKdeCyRB+kUUbufI1LyWAd8Dd7Y61s6LUvIJdweOQkXt4aOVsVPoLUA/YCYoY0lJcdyQCr0weaoW77irgslZCFJJUv8A21YYvrdCXENKC1pwTH604QJCHFURvACuPB5LZLYCwDgcTUDaGjc75UtRO2SrA+1VXdSS2wbh0qCcxAmKu2aGfIQQ5O4SINWNdkBh5RtJchutMr3oUG3FKnkHAihb+mOaulTNytbTEj0oV6iR7jitPcIPlKUkFSwMZqDTRD63FJCTOAT+1Zmqke2UMb15xikxEwBpJSaDolno1qm309nY2s7lkqKiTxJJ60VaaKHfOJUCBHOPyp6wv8MQ23JjqrrVBNw6WtjipUep4mnfLa0htHv8ktJLakdf8pz+csK3A7cZpWoIL20H0wn5oFdFxWotla1bSo+Z12jpRty4aQyEoUIFA0253yVDnGqWV1bX1s3KmVNekKKTPWOooCrWleeqVKKFTAmINXdfU25cLJ9Sd0yROax2svKYdUtjeEEf1cg9q+f62aTUSnc6/fyWjA1oAoUtlpt+088G1GAM46UZW6+lCG1uIg5x0HSuaeH9baedNrdHylgHY6SAlXse1ELPVVh8tgjYSRIVgirWzO04sj8OytfGX4Wv8Vt273h5d6yG03DY3eYExuzBBrDMFpYbfeSJSZJj9BWuYf8ANsi2SFNHO1X60N1DTbR22ceYQUPAegJwKq1OvZqXAgVjPv3athZTatVFBgxBTBGNuMU9VuAkpSYXAINCbS5NspSlmFH0lPatBaON3DAKjOJPSkXtAdbVa22jc7hROW1tq7Qt7kDzkYQ5wUn/ABQBLF7pT4aedkEykg4rRFos3YWlGwKABIOKTXGA7p+6NxGRjiq43PIqvSmY5qIxgqXS9QS8napxKnEDInMVNdLCXEqBUncc55NZ/SUpF55iUgSIMUWvRtSCJge9aHhEv2fVAA4PKW1ce5pKPaTepclpalenii9veLYWkpMEcZ/8msXaXCwsKkjEYNXzeObDlQOODX02CZw9buawsDjC079yha1vIMGYKJ696mt7hopCt8g9BzNZJD5K9xUoK96v21yuCCB2mnIpS4Z5VbWkGitfbXwMJkGKs+cP6cHvWYbe2kKSZmKN2joWjck5jrRm+iirNIjJiSqIHAqMq4JVg9aiDpkKmfanhwKSU4I+cipBIyFwF8L2+VgAkgj8qQrKUgHjpXpGQnmPtXkbD9RhQ/WiO4Ue6Fw6KZtacQKmByVAzHGKrpAwJgzUiVkREYHeh4u1IAUgWsiAEmeIpZ9AG7MU1PqgyQTgmvckEKEcVFYsFQfSVE2pURu6z81LvVBTiesHiqKFid6QRIgirKFJ2zyefmqoul+/yTrjScpUDGcSJqutcOjIqRTgyoQJ5NU1kbySmCk560TWm8KSCRQKnMEY7RNNWJAkRHPamxMTn/1XhM+qADxR1tOUJBwvOmZMUF1q6KGi0CffNEblYZTugA9prKaxclSlAwVGZjH5VDnA5pE4DbYQq/eSTv3yk4IHes/e3A/EQcSqPtU+pXMQE4AEEAZ/WgGoPKOEq+metZc25zXD4buv9JqBoBGRlR6/qdv5hKjt8tO2ADkVmtV1jT2bQPJaKlnJ3D6SKq6w7cDzA8kq9UpUTWI1O8uHUqYCFZVyT0rC0+nJJDqJT7rJCpeKnV6tq5caJDJyokcHrVfSGnWgFNFZ9eAT0HWr1hZKfQG2digo9+scUS0Tw3qFxqibJKCtalQNqZNarpmsZtJ4Vbml5wc/erOjMPu3Tbbcl15YQExnP713Dwz4Ca0llDmsXjV0swtLLKpCZ4Clcz7VH4S8HWWilu5U0l27byVn+jvH+a1D5t0gnzJUocjj2FeU1fiBlfTO3J/ZWRMLWjcU66ebSjytygECEist4h1dFqiVKClAQlJyTVTxh4jb0xZb3IU6qNoPHuTWH1HWDeLDri0gHgDiKzIdHLKQ54wmQNxt2Apvw914ivlfibw24RIQlP0/8Y61d1Hw1ZNWBbYa2OrAJckk4Hehmkauy3cqKSlJSckH9av6x4jtvw8qfSoyPSOtah88ENYKAVYc4uoHCFK8Ku/h0PtXXmgz6AjIoj4C8IjU9Uc/HOLbs2TuUMhTnYDtxU3hrWkXNz5A9aVYjqM10HRrF1ptLiXCGyoE7sbv+KtOtdA65eBz/Cgh9ek8q7q/gkXGlpVp62bR1W1PqSdobHAEdfmiGlaQhQh5JO5BQolMR8VY1TUnHGm7ZgJJEbzPA7Comb5xLiGyouLSZUmeKjU+JRtlcxmWn3VJRjTtsnKi1kK8P2HmFtLhaA8sBX1GgTmsJvW0vNpWk87VpiT/AHoxrmpWN6Da3dvcI7oUrmsZ4l1RizAtmUraG2ARz9q0WPjoFzvT2S5JOKz3Ws8L6s4sKWLcMKWSlSU9SKuWrbtv5l2bgLO7eEb4lU8GsLpmu2zZSLdZShAGFc0cttZt/wAC606cOQpJjr80EevBl2fh+CreNwJC2Gq6gu4tQuzdSySRuUAM9waFoeH43aFrwIUQqAr5rP8A+utpuPwazgI3SDg+35Vb/wBQU7pz1xZBvalXq3cn4rZ84SHGT17pININd0YudVAcDIwEQVJ5x2NX2dUYYaCmlSNsxzHxWCuy062u4adcShX1AKgTUvh65D11b26lbSVjnsO9Jya5sb6POa/hPRQ7hyumsXzb1qkr3rJEgZEdqsN3KCkkASkSEjn70LShalKBUErKMGYinsv+TebMBO0bwOT70vBrXue3zB+Xv60pnG1pARlN8otFIKQomADUDjmxhLbpChElSTxQ1xVou6QA4pIKpT6szT70KZYc2pUUnGwith8wbGXl3HvhZm0HCjU08v1peVtW5un2A4qvcvqZkt5SBmeKgRd/hgpKlgmeJ4FR3jiFsLWtSQjbiDXl9TrRIw+Vz7/JXxx04ArP3V6lVy6FIcDIBIIHWsD4p8XsOg2zTRSEmC4rjHPvNba4cKULCBuRt5PWsneeHLN7d5rIhQPXvWHopI2El/HyWns2ZIWdstTQp5JQ2qVDBnvRu0unWiDkCfp6/aqzXh1uzcCpKggekCYEdfehrqL9t8r8vc0T05+fatF7Y5T6OPmpbM1xO5dC0rUw40ElyDGDOU1oNPuEJZQ35ilkD6lcqPvXNrFxSk/yk7VR6prXaDeB5De8gKRjPHtWJqNOGA0rnjZlvCXxo1b2zTV6ClKlGFJGJHek0XUG120NuAkwQBVnxDp6tUtEpSsBSFFYJE5isNpz62L4EKKV74ASMVfAzzYcHIXM9WF0wLU/brkFSiOnNPs1BbZS4CcbSDg0O0p8rYSRugjJ7UUQWygLMwBmeSKyyX+YATWUYxYpU3NPaDgKVlKuR3+9XHLBbjPpdSIExEg0roYuYkmDmRiPivMAMN7fOU2kqwTmM03p5BE6+oVrRvbt5KoJZft5Q6gJEEA9Dmpm1AxJ6j6qIv3DLhV5qwoDGQAKZvtg3Gxsz2Ga9PB/UkcTNsoJOVmP0JJNFVUrG7aCQZyOas2q0pVOY4x1pQ6ylUIbTAJ6805GxSSEjZJxmmYf6p07njcCL6oH+HSBu+7KJWawXAAZI6TRSwehYbJIgGaz9q4pDhBVCkjiizK9yUqI4M4717OCYTM3NPKy5mFrqOKR5LkIkZ+BTisgEnPHNV7NRcaBET7nip3MZSJ7e9Fms8oqsKQQI6HqeKbgLkDCeppEgwZMRSLXgdegqzdjhC04+SsIcEZ3KzggZp4VKpAMRzNVGjBEzM96sNrRElUVDgLwpJIwVYhUBeBSKIJOcxnFQB/ICuJxSlwEDMH5qACKIUEtqwq7CgtajuIg9OatjfiDULYTAyZBjmpCkFW6Cn9qrjec904fmFG4AqNij7j96rqBQvapUyZmcmrZCUjbJI/KDVV1KUqJCgFHEGuZ26qTbeicCJnAPevBQIB5UJjGaYdpIG6T3ioLh0NomAFzzV2TVBcHFU9UuE+WtZnccAdBWO1l2EBcKjOBzWj1Z5K0JwAABMmsl4gdTsIHp24waolBokmgoLtzsLNXjyd61FWTwnv70H1BSSuRycY+Kv3riS2YkyT0z8UCuVglKR6ZOQPisTUYIaMjqrWuDXDhRv2/ngsqbClBI2wOazjuhBV6tBSUoOAqJP8AxWx0mPxiFpUQPcCjNrpS37/ym0iTyQJAB65rD1MztLMaGMLViAICwmkeCkM6szZaSFPqUd6lKEbVcmfYV2HQtGsdGt/+mZC3VmFuRClH56CrWm6Vp2mtK8kKS6oepZ5VQ/WdVaYCnVQlG2ZJ4rN1uskkJZuvjgqY2iMenlTXepMsNqDoOMEbqzt/4gYbbKkuJQkAk71QQBWK17xMl+4WGV+YEZUk4nPSs/4luLt7RytkkKdQSDunHaj0vhzjt38f5QOdTqKE+P8AXUX3iBNxa3KjbpATBPJ6n4pXNUbet0qZTMJiRWLbS+64FO5gxA70TsiUWxIcSGgDIPIr1x0TGRtaOih0pOKpS3184HTsS4FjMhU1rfBvg7VvEDDd2h9NvaKUZceB3HiYFZJu6atnUOONJdQmCUnEjtXefBOu2us6cwnT0bAANzZH04iKidzYY95wB7pLAvOGqv4P8Aq0vVPx1xeFbTaTtQEbSsnue1bq7v0MthtsegDbnp7fFRXl0G2koRhCRtEms9eXhLqwlKisEkZxFfPdTPJq5i67CdLg1oarTupuI3uLhAT1nn3qnbayq5uUNJeSFTgZk1k/EN0++nYl0CeUpyKqaQ2/b3YeQFFIyd3enG6EFm55ylo3B7l0R1K3lF1184M4MzWd8SW5u75KUoWoGCPYe9TjUlJT6QuVkAz0q8za3l9fsJAKmFj1uJEBIpjQRPLgCeoSuoe5pNYWU1WwFlaMuMLWlSVQsH+xqbw8i71K6YbYfWUJUC4o9B2Na3VtHafQ3aoAWjhQX09/eiGh6AjSdN22qErCASqE5UT1FelZomzSgu4CRGocI/mo7zTtJ/DqcLR845K05II6VKu0UuzSncUNDJSPqz7UY0nSlONKedEqcgnNS6xarZcQpLQUFQk7eR71pv07f+wCrCgPI5Kx93ZvuIQhJV+CQoTGDNX/AA0hix1FKHkbVKUA2mQon5pdf/G2zATaqbO8yZzArOeGiU+MmVvgqA3ZnqRXntbBGy38pqGYuacrrapWr+UlS0hX1JyY7VIG3rlPnpIZAPrUtOSO1WNMdtGUJSd3nI4nj5qG7UtT7qgseWRnsTVkEbWDdd30CCWQnlDLWwvW79SnbhK0TI7gfFaB66DtukpBkYIoK5+IQ6laisBWASIj2qs+td04q0cDzaCD6hwaaYBHGQ3kpB7ySLKGajfsrvn0ocCikkEjjFMtl3DyUlQUUH1JPAq1Z+HLVhaElKlbUnrAJ7n86KWzamkKSlAAR0IrzX/EO8wvksZzX6JsaloADUBcsyBuJACsROaHX9o2WAVL2lI9XcVpry3WtO51zcQr07RAzXPPHFzcWti4yhflvukoHsDyaUl0zWPDI+p94TccheMlD06tal1bfmpWidqZPNObaQ4CB9PtWKZtxZhHlrC3Ccjoa1WgXSnm0bSdwOY5pvUQeU22HCoouO4K0+0zZWzlx5vlBKZWVYEVU0LxVprrqmrZwuL6DZBP3qXxhodxrGmOW7NypsqTMBUBZ7GsLo1q94XvfK1O2eDKjAWQYE+9WabRxzwFzz6u3vlONcAyib4XctMukvMBxa9oiBNZBy2aZvnXbYLEOEIUTIqxb6k27aDyjKFpBTmKdo6A4vaUqIBklQgUnJG3Ttpor91EAJJNrR6LdqNi2hIHPrgYNW9XbuE6TcO2hHmhO8Aid0ZI+9VNECVNvFtsJSESJMZo8Uh+1Q2EAO7fVuODjmlZGbnh+DjA7ow7acLBaH4m/GXPAwIUgcitVcPNPWyXiQkcRNYO/wBA1BjXl3DaEEqcMKbIAj4rb6Toi024du7oO4jZEBNFNpQ5wfD0zSc81l7m4Q1N2fNKSTGQkz0qZq4KySCUpHvRBnTrdTilqUPKghIHSkTZNNOf/cpI44zSUgDTnqjIs4UNvcObz5gJT8ZNEXL9CUclI7c0162YVAS7gc/4prlqlRUlDgkjEiknFvBCgtFIhbLCylQhM/tRiycCpBMRxHBNZ61Q60lMkdiY5o1ZP7QgEJAJgivoP9M65hgEJOR8+iydbEbsDCM2DpGPfFEICkkDGZNC04WlbfHGMRRNpwlIBjjmvaB4fgDKzY2G0vEyZSOK9AVBAGO9KB688z1pxVMAAkGu63S7aSaKYAErI4EYMV4KTPII6GmXHZKo+a8mANswR2qCQASRlA4eqil3EqAUop2e1P3iQInkU0EKycyc9KekFI3czUNFi6UNZQyU8LIEGJPPepA6S2AB1kVVkmN/PAxSoVB9icULHgj5Jwur0q4FTJBnrULwkEg1Hu2j1EqAOBNIlSzEnJHH9qmQUb6fQqN5vaAmJENlcyYietDdRcJVsyf7GiSlJCFAkDsaEXB3v71HG4gbeoopAMUaP7Is8EITqCykzBKYyBWQ1p8+coLVOZOecVsNYQoIV5ZEEc9qw+uKUkfXvSCcTNI6qwKbkKY7adyB3Tw2rIUSIJ/Ogb5Qn+0nFFrpJCjCgQecTQx4AlSSrqMxFZzY2PALh+Qz8+UyGhxB6hPtk3D6kIt0r89RAQlOZNdN0ezVp1ggXMLe2y44OpjNBPA+kFu3Gp3Mhx1P8gEcJnn5P7UTvL1RUtBXgYBmK8v41qYydjMkY6VdrT0zC1uUupXsCSUhPc1yr+IWtuB0WzThKgJXtmI7VY8f+KV26VW7PmPOyQEtnBjrNc8sDdXbdxc3zpL07tkQI6VZ4b4ZX/yJOFxmG7af4UTF4leppCHkpcUZEgH3H/qtFNw+Um5UlXmElaykCVE5MDH5VidSvG16qFtN7Bg7U5g/NbTQLph5ltZeCZg5ifcfFb2sY5kYICl2HZyg2o6QxpBfuHk/iG1Nq24jaT1rIWl6ZcKAYJz8V1PxG6zqWlPtpB3AEgd4xXJr1DtncFKU7QBkCmvDZDM0h/KUmcaulftmzdDzD9IztOAMV3n+FN/Yr0ZtDSUIdYQErCRz/wB1fO+n37iVkKBUTiP+K2PhjXL/AEpRRZXG3zPrxyKq8W0TtRHt7IYZgHFdw1u9KESFcnHxQuzW28wtaVKLhxEVkNL1241IqbuHSV9hxNazTlhuzKFkJKcjpJryB0f2YFr+UTnF4SN6YHVQpsFXMk1b/CG3SWwlKhyNonNQWmpla0+sDaTPY0QcfQXPNcVIIgACq3l2WlSXA8BRM6ctY80fUelXrO6utNizWj0k8HmqZvG0tg7/AKDJSSQTRUNWur6e2p9n+Y24FpCpGRkZFOaBxBuvV9OiWnduvGFPZLunUKeUgAJJBVMzii/hW7KrcfiHd5O4x1THShFqveChAUhoH1JHBjmqOl3bjOrvbQAw0ha1JPXGB+degi17A5oPvukA0ZBW9s3bdQUq3dhSvTsnqOtRak+tbIWCHiOExyaxTOsBVy2tsBv0ztjgnmjlkpd3auXCwGwMgnpRjxTzpPLjGB1/0ufGWAOPVZ3xHqThRuQkNJglyOR7VhtU1N1o+c2iWwQUq3weeZrTa+y5duu2jrTifNBUghU7gP8AzisLqfg/xHdsqDb5VaeYQPSRtpKO3m5TghCAQux+GfFFnrFsFsLdStCQFIcVKo7z1rat3bKrMNtDzldesV87eFnbjw1fpaccSSlIQUlUbx1Heu0aVqjH4RLrQTBTIA+KpZqTp5SbG09VZINzWrRIS3cXCiJICdp9VD9UYvkwLFKCoGFKUr6R3q5pbqFWAdKEBQMhKTTHXTtCifLKjxzWrFI10QIqz2Sj22eFKhK0oQp5KTsR6yB1qW1Sh5pxYnarAx0qZJTb2iSXSr/d7iqLmoeQAlIEbvpJii1c8MRBkOShjB6KO5H1MlaQUiU9q49/Fm9t2dXtUMqUq72E5+nZxHzINdPvLrzn1mAClWM9Pavm7+OWtrf8cLbt1ECzQGlSIlXJ+1ee0I+3awho4vK0KLWWjNu627byVDdux1g0Q0J1bV8ClcA/ea5/4b1T8adqlBtaMlIOPyrYaIm8S75yHIQcEqTzTer0pjBaVax/pItbpL6G3fMUSoqjHapdQfLoCEsoUg5WlSQQoe9Z24VdIWtS3E7doIJMVGzqDqIWVlajjbOKz2xmKjt4Uxs3Gh+K0GkWtqh5LqG9iegHA9orV2aGHAEOJR7n2rKaXdf9PkKBcT6ZHJoxY7iz5JSRuB61mTzOjkLiMplrjkLQITYtSwhSiegIxVttS1JS+tJBiIA6UAYafbcCEq3Ep5Ak1ptIbV5HmOq3ACNp5FHFIZxhtVm64XOaWC1kdUtbv8e68kBKFEQR0p9xfX1nYAvqUlsxBmKJ+ILv8FftrQobXCcKz0oRrFuNd0dWnOOeUlagSsDiDNVQvZRDzXvr3TDQSPkhTvie0ZJSb1sz9QSck1auPE9pdbPLO0pABgzuNYPXfB+p2Nq5ctupdbbVyPqI70FQ7csOpmem4dRWgzw+B7P7brtFHK00HWupjWlrlIUSCZIplxqVw862tm9et9ipOwDI7EHkVm9HvEu7UrIAIBO0UWuLTzGwtCgDMjFZ74GRPyETg0tK2unakl1MLUDJ5iiqXFoQlxI65E4rmmm6kth4IWtQA7cVt9Gvm3GEzlZ+4+KVdJNo37ozVoJIw4ZyAtbpl4i7ZhI2kHI9xRa3lQzERwKyOiLUxfuJSkhKyFCf1rWMkjaf2r6f4LrX6jSMkdysOZjWvNK2SIHv2NMk7zJiMCvH6MHI614GU5644rWDyFRIwE2mqCQQTBB4nikATnO7cOhpyiFemCRPWvMhKSZAIHSrCXcjqgcLPCelBgEzzx2qZQAiMZjikASATunPfIqQAbTtg5+9QXVgD7lOwnCq8jHSlSIUAk8YmmIUSZgDpIpwJ3DgEAk1WbcBYT5ApOICCMAc8mvJ3beMfNLErwfz4rwO0DrHNRQoYQsYAq92pKGhJ54oQ6TG4ZxGeKvXylKd9OIyDPFD3iodUpIx6qkABt4/lDfJCoXS0htSD9yTWH1jCyRMJnrmtTqbqk7gg4M4PU1lb7e4SQgq5BHFZ7gHmx3RjaRlAboFWSk5zPGKZpdj/qGrMWgSAlSwVwSfT1q1cBRJAJ2RhKhV/wAGoP4964JA8tGCRwTzWdq5dsBeeg6dvwTcGC0NzZWt1F1i2ZQ0yEqCUAQBATGBXL/4h68WnvwltIddSCsjt0Hya13iHUvJYedKkJQBukc8cTXDntcTqmtPvOnym1qBERkDgZrzegiGpmdI0ekLVJPHKr3r1xdpSp4ttJkhKpk/FCbvUmm227ZKtpQuXFDtIFXPENs4Fl+1dUq0KzsBI3AdjWS1Zt5hQDiRKh6ik167SwsfWUtNK1mBmlp9f8OLavQbAqfDiZMGrNhZXdpDTolB9SdvT2rO+EtUurPVWh5q1NqMFJMiug3N209ZlbKUBwYJ4qjVOmhIjdkd1TG8uYDdKlpwdD211xsNK53fV9qDeM7Jq7/nWbSgoYKep96LWtrdF0+YrdOQY4ohYWAS6A8ZCTPee1KicQv3g8K/cwinZXMGdL1AOYt3ZB520cs7O7aUl9aDu69xXQ0tMtKkhJ3d+n3oXrPlNFRK2huzE1efE3TGtqWEQ+5P8E2ZcvfNSklbgAAnt1rpl/a79LbaQAHEoMqnkziq/wDC/wALOJ0Qarco2fiACwkkfR3+9at+xQjCyBAgD/mvJ+J+IOZqC0JtjWGMrltpY6ha3TqXXXHkqVI3HgHpWqtNPAeZLr2Tnb3PSrupWLDV4tsOB1HIWARmgFy6tu6kOr9BlAnjpTDZQX/3QCUkXHYNnBU2vtLYudyTKQOnE1pNMWqbNltzcstZT0NAXvOv2v5TRVBBMmPy70b0cuWjo2NoLoSPNcUJCR2pmBkb32ygCfw+Sod5m2nDhaK10xq0IceuPQoneCYn2FAdfDCPPVZkITtJUQOfan3IXdXhukPBxBkL29J6xXrDTg+0lm4dllSiEE4OetO+WS7YxgGeUqXUc5Q2ziyLRv2C4DGyMYrS3d6EKYZZCFB1IVtHRNOVoyF2iWH071NEKKj/AFD/ABRJpFja2Tl07bJhtEhXQnokU9HA2BttNfxlS4tkbTgqTzdt+Mt3EtoA2kExkTUF5sYLvmtbGh9JAke9XxcKMeUgAKAcKDlQmq/iLUGGtO/nEKcUmNoFVvkYC526v0SZ3OyOVzLxLptpqbzjrzcEmW1duxNWdDvdS0xhm0ab/FoK/WoqjYPbvTbzU0FJbWygAkxiCKW1eKwUJPlyJweleeMhd/25CdBJyOi2uja1apdB89DakmVIUc1P/qi3Lwu+aogKJA5xWDurfzAFhskwQTNBEm+t7pDbYuA2pz07DIJNUhm9gDHVWUw2Nr7Xbf8AWAtlRWpQKsJMVTevEOtfiSqFJMKJOI70G03T7i305oXDqwsjcUlWJ7CrAbHlqQqYUjI7GlNRrpJnNbIbCDyWt4QbxXq1w7YrY0u5Sw+4kgPbZKPgd641/wDEX7zU9ty4pyVbnXN0lXvWm8aa3rGk6x+GsdPS4wswpS5MHsB0ot4Web8vz7hpLSnSck8Ct/w6OTSstlDcge/GchVNF8H6NYtf9M35rqDuUpR9ZHatN+EZZtkrUAYifTn2FVG7Z21uDcbFFDiuQdwA6TFFnVMLaQ0VqWtQ4AqGvM79zzarduHHVCtWQw6wS4qEox6egoAp+1QQGtykyQnPFFNZtnLdSlW+5SCIIUaCaFYm71FKSSUA7lgcH/FFM5j2buKV+lY9htbLQrNTrLSnORwATWytrNKWkqiV9AOtVtFsB5SHgNqUiAnvRlaFIaDqEqUrMCOK87N5rpAXDHz7d0y6XG08ocgtpumxaNuB0mFA5BrQPpbtdPIKAl7+qDBNUdCDIuVugKU+RtEj6feqnjvVGtKsnbu7dS1JCeZknAA71axhZG6RnJwKGP5Uh28hqyXiRu9XeIvWleY02fU1mSPap7fWLZ65Qhp0A4BBxB96h0/UB6A4oyeI/eiF3pthepF2tJS6kQlbfpJ9jSu8D0SCvomnW4hpXrq2XeMOs7iEOJzisN4j0hVgFPOpCkFBhwDJPv2rYWGqOKbRvU1lOwjrAxn3pPFVja6zoD1gtZSHRtJSYKfejgndp5mtJ9KH1NoWuQeHdYC9W/BvEQtUIUFRXW9HaQ/bFIIKQmTPPxXzRdNXWh+Jlth8OvWj21JH9UH/ABXe/BmpJu7ZpxJlK0ic969F45owxrZG5BQCZ8ho4pe163/DrSUIhJM46UY8M3CgU+qVJPQflTvEVi2LJxaTClwTJmI7VW8Og7k/zFKAIyTXnXOEkCtAXQ2FxbtOqI3lf3Fae0WVNx3SI/4rFMu/9O0JyF4Mc1q9Lc8xpG7K+naK9j/TMj/sme/5LI1bKeSSiqVQBgivJKlEGJJPSmIknaVQoe1WARv7jtXqmA8hJn4rtIAcjgTiKlSgBIO0/lTEjElWfcVKcE7jJ96Np6hEXdE9QJHAx2pUqKVg8SftTTISMf8AqvGVRt46ZqTd2hBzjlVU7wgbSRnjtT924AiTIxTEkEERtgRMzTknG3Ku01Q1pDRfuk6SnJ+kFRVu7ClBASTChTVAYUVQCMQc15xYCQhAg8zFGC3ryoOQFQu9yHlpSZSekVQUNzalHHBgn9qJ34BckCZGSBVF7btA2pJiRNcW7eRaBzS04Wb1VCwkhIIJJ/8APmsrdoUCZkQrr1rYaq2VwqZIyMx9qyupqUHIJCSoxx+lI7Dd1+efw7JhtltUgr6RlO4AZE0Q8OkzdBsmdqTEgY4oe6pew7FgDmKraZfG21QEBWxY2rHb3rK8Qha+EgXZ+f5K/TnypKJVnX2g+lbLiVEEZAHTvXEPFmlpsNY8m0Cw2pRIFd11wAtqAE45SeRXOvE1gHSYSQoK3BXX7Vi+FSnTuroVqyepuTXvusQ+u7S23br2qC+Eqojpfh06w0UPIWlPJWnoaiaYuP8AUQ5cFIanlRxFbnw44l5YtrJsrwN236R89ua2NRqXQtBb9bVHkgCh1/NUtA8H2OlKS8i2Q66BG93miT9hbtCQEpEyQetFrlh1qZB2g80Je3IukOLSl9CTvCHDKTHQxGPasY6h2oduc5C5obQZhCNSvmrdYS0jzFRKcYoUrWXAoxbJJGc8Vb1NDKW1rBjOAk+/6VQcs3HWgtLLkbgUk8EVoxxxAZUEn62ql3qV49JUoNgGAE4qx4P0S98TeIbeyT5hb3pVcOdEIBzn9Kjcs3HHkNoYUpxZ9KRkk9BFdo/h5oSfDOikvNoVe3AC3ynIHZM+370Os1rNJDbfiPCjZZu1tUHy7JphCEttNpCUpTwABFDL64YDhS6VbeJA5pL2/CUH1BIiVGs9pTr9827dvCVOrO0EztTwAO3FeOeC55kd05R3QwrF4GgtS0neFCUpB4/Kg1hpD+sXqtn8vyzlU4E8UfeQLFr1RC0klauRWdcubrR7Z52y1BrafWremQPvWtoI2udlIykVaNoDLF3bWLSW/wAQ2kBwBWCT1+KLOtItbV22UFueYYGxEg/Ncl8BarqvijxI+x5rKboEuKdIgBExECuv3Ns9aaUve8t95AkqjAFbYg8lzyBkf47fRVyEeXypHGdN09DbxY2LchMJBn71U1Ztly+tGrckBx9CyR1SDMe1BdR1d64bCgtKSkgAAdO9O0y+a/HpffWpah9Igkg9BRjWNcAwCgazSXEQJXSEINxLaFgFaduegqd3TwbRxLxS3bpEgR25NUPDN7b3bRuZIiUw4IyOaJPKdWyUO7SyqQATW+Sx0ZNWk3nYQslrrVwy01cNOgFLhlSR6lI6YoFdpuNQt1oSpagsTvEGI6GtresDapLgEgwkkSB9+hoGUNW+8sOIISrIA/SsCXR75ew+SsjlrAXPNW0d+3b33BUZA9U9ak0Jjy1LQ+tJSUfVGI+a2tyw3doVdKbCmxgpKZzVFyztLFtTtxbtneSkIBnngRUS6MRkEcWP0/yiDgfSVTsUtub0qTIJhIPFG9K0pKSlT7aIZUSmRg1DaaS5d3KLry/JbbGdv9VadbJRbsnYSJzNYupY6GNx/D6JuMj4Qq98pCbcyE7Uo4P9qxviXxCxY2a3LQocdCwiCfpxM45FanVfNfm2CSUrEKHt2rlvjDRrphx9SGlBITI28Y6CqdLD9pd/d79kDjG3hCtS1Fd3cFb6Q75hncE9Ca0ukWdmGEPOpGwcJWIrL6Gh9Vo0q4Z2uxIHWiDDibNt551Tqm1L5USQDxHtXpmRhrQOQqJHbjwuhaKu3U2oJSO4H/FJfMW6lB4tbXEZ3HEg9KE6ApexlRSUbcqAmjimkXSFreWNp6dhQvaxrTXP3fioY0t5Wb1B4XN4bZxBSEjCutSeCtIcF466sbApUQocgUUZ0q3Vqrfl7lAt/wBRkJrS6RYpbuUlLIKkTGazNQ2R8lc5pagexrbrordswptBWOMYjFFLRARbOKUSQo7o9+1Q2u1V04paYGPQP3prlu9uJ84tpUZhIimWVC5xa0lI0D1pRaeEMPLuVDaDKRXI/wCPmn69rFuzc2TzblrZgreamFbuixHMDpXQvEV8NLbJK96VKHp7k0Ft3EXu8uNgpdBChPI7V56HWywSteRgH8zynQPTlcb/AIc6vepvVWd48t1Jy2pZ4I6fFdi0d8u2qkb5BHFcz8b+H7fw5rdo/pqVFi4yUqM7DOQK13ha89CQDJIkRTvjDGTgTx9VfGQGkN/VTKZTbL2EnbuwaLeclFqlSAFrXgJ/vQ/Xg+5a7mVbVzMRj2mqDd4sW7Tb5AuOSE8A96y/LMoD7XbursLkPivR3WPFly442IcXvSR0nmumfw7aU3p7aEJJCAAccDvWa8cBKtYSnCCUgkzmtZ4GCG7PehweYswpINei8Q1DpNG3d2UM+KgPqVvnmmF2g89JUnqD0oXpTSBcDyAdgJInmiq1Fdi4ClJOyI4rNanrLenpFrbp3XKkwD0SO5ry+la+b+00XZ9/RdI/Y3fa1wuLSG2kqK3UklZBkCth4fG9kEEEgdOhrlvhpS3QlTkEk56E+9dN8OKSG0pG0cGD/mvoPg0AgaQffvlY0swLjaPohJ7GImc1OmEyoQccVEmBITkgSaclQCgFjivRNwMIAABZTztJAiCRzTjAWEzMYndTZG4qCTn3p2PTMER16+1WBuTSEkE0nJgnIJAxnpUgSNvBmvNpBTJPvFSiDgAkYMVDqRAgEFCEmMEDnPtTlFSVAEmZ4BpvAkKknJz+1MUhEyoevE9aWLXFuAAnKBCmKsbNozznimuOJS0CsgAH8z81A4STAIIB4monQ4tZhJhJwJq5hIdY4+iAgsVm+IKA4knaevHSh6oKIKSY7GiMbrItqMqj8jQ7aEtGP/8AXzQC3CyMLngDIQfU2wCQQATn5rLXyUEKCEkgEyOta/VEjeoI5JP1HJrMag2d+EhRMGQaWnicH729Pl0+qtDWkZ6rM3rQb6BOeTET1oRfhtRM+ggYIE1pLlpoSRzMkUMes0hC07EqJJPMilZrbTcV3VrmNOeqB3msXNu0E3I8xAHwoCgt7et3CStpYPt1ii2u2ydohspBG09Kz/8Ape1hTwUdwEggwI/vWXqtLEynjqntFKS4sOVBomhP+ItYTp+5TbCTvccCf6ew9z0rqdtpllpdkiys2ENNNjAH7+5qTwFoR0vQ0uOI/wCou4cVI4EYH5fvT9dc/DN71KSTxivPa7UmV2xpwPwT/lbhhZ7Xb1tlJC1BKUJz7+9YHUNcevLn8LpzDjzhw2AmSqtW1pzmvakLbcttCTudWBI21sdD0Oy0Zlz8LbpSVH6yPUofNWsmj04y3c78vvUGMNsdlg/D/g922Sb7X3Su4PqDQI2Ix+pqzqSEbyhvBgBAT1J4FazU/wCZOAehB9qg0jT2GnzdPK3KMwkjCe33pb7Y+U+ZJ91cKSxm0FUvB3h78I4NSvkfzx/9SCctjv8ANaZx3ctCMmTCRGKquXKZlMQBER0mg7upB27aQkHbvAUQY65pcvfPJblS9u42FtNW8PfitMCrd58OBBUQngnpQW1t1WVqy06goUM5xEc/rW/tnBb2zaUAwQBPesl46bVeIYV5iUKbXKs8ivQ63wuNumLmYr5fRZTZCXbSsr4xun7i3Qzbw48TEE4rKWenao8V2FztcQvJSn0gD3NX9YcurbxKzdBwOW+0I2kYNHLdbN3eIXsKFIMrAH10npiYWCzlWyxvcKGQsx4VsXPBmrvuhLS3nASl1WSAelXXvEepXmoKF1cABcABGEj/ADRbXNNbuVi4bbKAR6ioznpNZi0LLt+41cMqbQySN44mnnyGUHOEs2PYRZvC19vaC5sVvNlBUEgEkd6EWdtqFjfrSSZCpbWOFexHSotP11NopbaFktEgEEc1sbG5Yebac3JUSBmM0q7UOYAK6fur2loca6punavdWpSypDaiIOR3OQO9dI01zzW23XElKEiUpPc9TWLsdOs1Pefc7VIk7Ae/960VzeOJ8tDCfSpPExFbvhJd5e55/f6LN1YBcAAit8UvMFQPpnhPWstfMouEO2vlICP6jMA0WcdLdu2004S4kztNV1bba7/6oDYqAgdJpyR5sGuEoxmcqNbrVsw2yGgFFACQMUEetWX31JSlxLqSF+pPCjxRm/fSy8V7UgBMAq/pNWdGb3Nm4cbCVngmk9ZybKYiabUdk95dolp6EKHpVHX3pjz1w86Wm3EqQCIzAmo9TeQl1SISIMzxQli5W5c5VsaKpmvGO1Umpk2v4J75T5a1gtX0KdAUl0Bt3cQc8/eqztuu+cNuFgBCTMjFevL9oiVlJkyCRyR71Y0y8YfhaUbErjcVfsK2Ps8TQ23VXzKTa4uNoJfeFLJva8jc27B3FJO09uaH2el+Wldu5CgDklIIjpWr8Tl9yy/kPBrasAyPqHY/5qhptuHWk3DgCiYTAM1oM21RdgLsUcoEvzrW4cLJRAgQRitFp6kOacpRKFGYCgI6ZFSahp1ugtqQUJ3GFEVmteXfNvjTrRDhaX61ON8z2ijZF5criTza47XC+idaa60vVXLFFr5RSSS+ojgftWn0V8v3QXbuw2EyCOvxQDSvD6FW4eunn/OWfUHYmPcDitPpts1aMjagJCMGsDxAiB4c48fonx5cjB0KK7oZL7hVtWIxioFLdG4LUopCZCu9UdUvW2mAtS4G4gHoO5rK6j4nT5bgYfS+pP0gKwKTdqnz00Alv7/P5fJBsHKH/wATH3U37G1S1W6k7RMfVOePtS+Hb1CUIaWuVTwKz+pB24Sbt5wknM9AaZpN0EXG1J2nqOtWvh3w11CZBbRW+1u2tLnTXF3TO5tKCpUZPHSuc+F9RUm5WwkSgTtPWPeuhaU6h5ghxzeIjafisXfWzWiX9wlSIQCVJJE+k0voSA18LsnorIyDilprZ1LjJ9YGIMiYrPXdqbfVCtTyitQ3CeAD0qjp+u25Ul1KilE8Hmp9S1RF4tKkFISAQI61fHppIn1WCrnxs6hZXX7sXOsOrUR6TtSY4j2rQeCXP5oAUCArJHSsxdWrrV+4tcknOOCPmtV4UDVq0gqHrJ9U81q6sNGn2hVRw0c9V0pCttg88SVBLRke4HFco0hAfuDcOuKKlKkzJPORXRLO8Km1NlcNLERGCKoN+GkOXanrQqQFKnYPp+KxfDdQzSucHjlU6nTSSfDwr+gMlDTat+8mBit/4edgjJJj+rGaxmkW62VBt1CknpNbLQ29iQrIH3r3vhxa6IFtLHkretMlZUnBOOntVlISpsQYM8AUMYWvzczJ7DFELcqkZrc20LAVYLXOrqpJAVgAx1mpEIyfXMcdxTCCFAbccn5qVpMqKgDM8Gp2j6IhtIwrCEFImAD7GnAcmYPeKRJKfqOZxT2yCMDmoF3lcHNbhBQTMgSfmI96RZKROZ6jtT0KiVHByM/4pAAoTmexNLvDWgPaUyG3VqLaFLzIPTt70gSSghJMjg9qkWhKiQdwT1FRqUhCxt3R0M0ZrrdITY+imSCGzIAO0kVRUkuTMHH+6iDO1ZTORkfI71SISl1SQmYBEdBVje18oniwCENvWypAUSCE54yazd61C1JIKc4g1rbpO5sgqPfPP3rP6o2iSSfV84FJytLMA2rGN34WceQoEykqOEjrVZdtuQomSpAwB3oi8lSlg4Me9QrKB6uSQMfvSBLXNNixwLRBncrO63ZOLYwgKiZmhv4ND67e3QAN6kpCu1afVICCEon0kyeKDeGm/N8UWtm8P/2btoEz1rN8SgBia9tmvw/JO6YhrsHldHvWQyClDgISnaCBiAOlYvV7V68uvLbbJJwkjgdya2mrIcYt0BSgd6dwAM0FYHkpK1xuIwYxXj9X/bmxeP8AS148N5VfTtPt9NQ3Y25C3HMqVGVHvUmpkt24CiR5eTB5p+lrbe1sBySlKSSZp1/bpuXVwNjO4ggnP51XQazc/knuq5L3WsK65qlzqD/4dgutSNhSJj+1H9Ktbjykh5JCuo/20RdDNqkMNJShHHpqlcXyWlGClRA5HSjdKXgDbQQPeNmFDq4bCitxIB4ke1AtMCH9fYlJLaVFSxGTHFX3Rd3z5aSj0Tgnv1oxpNg3YtFQHr+oYyFHrTUUjI8Hn9kuXOAs8LTOanaos0pLyAtIg7jkfasB438RtNWiiXEkAyD1Ue1W9VIS96FfzTkjqK47/Ek6mjVAte5tlsBQ3TtJnp71uabUy693lkUEmI2RvvK0nh953UFpdeJIUZyrg1udHY2XCfqSjnf71i/4dqF3p1u5uCifqI6e1dS03Slm0VcqH8tJgLnExMRWXq7bOWhvHRPOYCLI6Ko6qXpCATPMYinPaLb3NndPllpKnjtTAgKMcmjLbB8kNbACo03UHrezsC15gWscifpoNFMS0vecV17peSNm0BoXG9X01VpcKaTuUrO4k4+1M0/UdQswk7jDZykmRWh8XWzzrDl8gpSlKSo4yIrmd9q1wDubyicqOAa1dLG6dvqCSrJLcrq2m+K2rpSUKcSFASEcZrX2WsquG0gpSNkQoV89M6o2tSHBDakj7VufDuupY0Vx154rBeSlP5Vz4JNNlmFzGtkZjldosbi3ddbW8rYRJQZwTV+5fsyApwpPCUkjk1zO21ZBSy+HRtVJ2Z9NGLbVmrthPmrCUJVtn/b2NXt8Wcy2vbR6dvvVT9NRRDxK9bXCCi5P8tBgpHPtNGbFwo0xiVAwnoICh0rOXtmyL1Klvbw5Bk5ozcr8poIn0iAPgVh+K63UB4FVZ6dkzDEwACkP1J9DpKVqEnJz0oQ44gNwhWR1TT9beagrQstmCDmBPesLdXOs6d5Oo6g0lFstzYlaHJ+JHvSmk0z5RuHP6qXAAZW8C7ZTLXmbVbDMUQXdKeZIDKJQqCEn6B71m7N+21Ebm1bQQCY+1aFkqft3WWwQtcbikc0+0PkYWPqz+KVaynAHhTu/9Ujym3JnB3cVUtWzYOoY8xSnFklI2yPtTrRDzSFJUVICTBmJ/Kr2k+m5864SQlKSqT0qvQtc2UB3X8j7+iOQtc0hoWa8W6q+3bJPkOlSZBITuAPameHi3dWibovobfCgVo3ZEUX1zVrRjUJSyVMlJ3FScGgOg2Sr6/WvyGWW1K3gJX0nmK9BJqI4iS2sdEuY7AB5W2bYVcOofSsFGISOvvUtwsNBfT2mrjDCmbZtCQJ2yCMGsb/EPV0WGjvuCQ4QUoHWeteT1ofqpBfJoV77LQbUbUF8Wawzdres2ruchJCTzWe07TV27haQtG1WRArDt3jyNQS6SlY3bozmtro2opefShCQhR4FakmjfpI9rDYUMfbuP56o2LZDqU26wI5MigOoFjT9WUwGyVYz0Mj9K1zbrLbCnlDaQJNc48Sag9f60o+UpIZO2IJKh3P6VToGmVxHTqijLibdxwuh6LcgJRCinGP+aHfxTt0p0hvUUZSyQlwkxg/81V0F1wWSVGDtTwk8VZ1tbmpaPcWK2wQ4ggJ9+n5UuyMw6lr+l5TBa5pJC5a9rFsHNoVHcDrRzSrpi4AcS+T1gdqreFvCd1q0+da7LRRUC4qAqT2n4rpnh7wRoVrpnkfhlOOOfUpxUqnpBrc8Q1ml07dtm/kqonSS052EGtdPZvghDZRKsyrr2qZvSXm0qAT6wcCP1rTW/hJplY2XTvlpOEqzH3rS2lmywEjBMQJTXmdR4mxo9BtNxiskrN+FdIW9/MugsJiNo6xWsasEttFsAlI5A6HpVptKUoSCEhR9oB9qVy7bZbUpwobSOSTWZJM6Z1mx7wpkkpuFTcaS3cNzElJgTWg0lO1pJ5THQ1mtOc/G3xcSCApRCZxjpW5tLZCGQlB4Hbmvpf8AT8L49K1j+QsCcbpTXC9bAxIJg8DvV5BCEx9oqFttI9PUH8verATPBHpGMV6nIHqOUq4bhjlKgEwQZHUEcVaZSAueI601kSAT3yKlSo9TzQgHuuYFIR2JxmvRE7gSeAR0pRxuPJPXtXtxmJn9jRO6C0Yx0QRBIBJ2p+RkU9sgFaZMk4zyabwkjgEU4JEjYOYIHSl2tLRRHH+EwGu4KcoifTBj25qqrgJBj4zVlSo/tOIpkBJBMROParhRraPdKdpPKVgpKRkwM8VBcJ9RWAASOI7c1KlaeeI6xTkp85ojkjjpXCKwbPKmiBQVJ9KSVCQeuKB3zKsgkZMjHSjyoUDCZIHPYVQvmgTu2mCIqmZgNbRwuZZcslcJQlxe0Qe1ViEKmARtGZFEr1nas8AjJMdKqLT9ScHECkSHNd5bqpNNa48hCNT2hKjuIO2BPShvhtAV4kZWB9CSoK6zR3UGEuNwrMDKhQbQob1qVAqA+kCs/Vh4Y4YIz+/vFq2OP+40DC11++kICirakDAUM0La8y7JKEKUmcxwKLC0/Fulx6QwjJEZX7U26etrQA26EIiOleCkka2Qh3PbND5/ctxraaLUDNpb2i13LqySfTzVfVNQU20GkJ2hckGJmqV5qaSsqLkZyBmqab1pcpJ3knGelNwucGurPvNfd0VJYSQTlKtDz5JSCrv8UtrpvmuBThAT/ujipmtQYtkqWkAEiCPaht/4lt2VITKjvxKRhI7k9qNzN0Y8v4v2QFrqJWglm2b2ogBXUVQur0qSEsArUev/ADWO1XxItctsGVFWIM0H0zxfdaa68i9T5qFg+XtEEGp0fhj5H7pDgqqS6LVqPxDqdRcJbLhSYg9MVmv4i2d3qGjoS1ZvOLC/ShtJUoz7Dk1X8I+IPxmqureUCtS/UJ5B6V1KxW0m5t3W9hQ05u3D/wA5p6zopheEvJH1HULmn8L/AAd4t0lxTl5pdwzarOQ4Qkg99syRFdQtbtQIs0uqjdke9atx5t+2gQD0MzXPllWl+JkNmFMvrOwzxPftVvjumLyZWfko02RtcteShloKcUUpkCRgx81nr2xW9eLKHdoSZIPQVqGUoUgh3KcGDxIoLrbNsu4CitTYngSArnkV53Qje8A5V7jQpZ+/Crhs6f5ZKFIIUsDocVxTxZot3o935K3JbIltX+75rvNolpltUr3rGCo5gTWW8d+HjrLKQ2tJ25RtEZ6yTXqtHMIACTg9Oyy3wk+lvK4u21sCpSVJmDKqItXbrWktMNK8ttKitfqkrV39q1Vn4Bu16e42+Qm4BOwA+n2JPvWdPhvW/PXZrsT5qZmD6D8HrWoNVDKCQ4YVMcTm90nh/wAUONvC08zeCY3K5E9q31nfvBCfNSrJEyYNY/SP4fXnntXd6oNttqCilAzPatlqzbf4dCEq2lIAEGszWnSyPHlGynmbgfUMLRWuvruNVsLdKAkJWlO5Zwqt69/MZcOTB9IGa4S2+6zco2hZ2qkKnmux6Lfou7Nt1AMOI4ViD71h+JRG2jof4RO2Y2lUrnT1XT4twUEnJ3gQRVw+GGrnTm2LwBxuSQkDHtUc+TcB4L2JSJycfnRO21q3bbl1aUgdSYAFNeD+QWnzDTs/sktT8QCDXmjo0z8MhlLbds39RCc/JpqtXQw+WWFI5wqat+LBcXeiXgsnQl7ylbFTXJNG15SbsW90kNPo4JyF/FNajTW4viFfRFHGXtpy6w07cLJuVW2IkqnmKmv9VC2GwlooC/qE4igDniUO6OhsQlzsgYA71Tau7p59s3Cv5cbx9+KX1D2tjpps+/wVrIKOeFrGrNN4gAN+Y3PHIOKs6VZf6eXUlCUSBEDP2NDtAurzy3EMLhO76tvH/NFbq62MkqVKjEmsnUytDDsJDj+CZbFRrok1jVGrVrznnwlKesQE1wLx3rf4i+feublSmVYCN0AZwRRX+JXjRLN+/ZKcG1gxsH9R9645reqP6lcBTg2oH0pma9H4F4S8gSyCrS0x2uRL/V0/6mgoXDYgSBW88Pvlu4bcgKQsAqMxFcot2lKlRTwIgV0XwVch6xbbUVHy/SY962fE4GiKwFDK54tdC1K5dcsHG2pDriCARwPehFq2lbTJuSrzEJhSyOQP3rQ6a009bpYSUkkGTVK7tEsLWlQSU8JkxivIxSAWxopNR7AASrGhW1u6r1oJ564ArS2OmtNuSkJUZmT2rN6ZcttuwRtSnB71oLe6Qtw+SBJjPQ0hqnSbsK6ZxGAFfRYspEbUoQBxNWWAhlJSFCJHHtVV5S96QFI+nmMA/wB6rXN06hsqbQXCnG0Tn3rODXP5KFosY6I8XmyJMgAxzipk3qEpIEcc1kmtQceHBbBORFV7x5514thSkqKuQTgVI0dmij8o4s0tkq+80egyOhmshc31/d6uq1uxDSD6EgekDoT3Jo9oSJQlKjM901X1C03eIIQkmGxPzTvhQYNVs239yo1XoZuR7w+yUKb2+xiJBroKFFLEFIPsKx+g2qwobt3ogwK1aJIgEDqYE19U0TSGg9CsN5N0PopUwtQUJEjg9anSCVBOPyqFkYkwI4mnOvNtJLi1bRHfrTTyGtsjHW1DABYCttgCQk46CpEKTjbg9etZbWdd2t+TaplRwSTwKE22tuNvhDLwCUAJkHnOZmsDVf1DFFNsbkfotBmgcWF4XQg5iIMftTv6jABJ69KFWl8bhkLTtPfMEUQQolIUQR1J61uwzsmFtST2gOpyFwDAIOcz0p7UkpUMGM9aZEn6xtAkTUkwnBn3oIsO9RTIyQonNqlAkEKPGeagUVYMkmSAYq0s8OBIEYMn9qqrKlHB6HHSryG0EBdtuk9KRuJgHHWlaWptZJMgnjpUaRtTBI3CnH1jJiBzQHyw6+h/woaXA4CW5a2HdHpORFVrhAWglRj/ALfarvnAJ8path5SDUSxKSCOucVSHxPb6TYVm2jSzeoW8KB4T2oK5bFTsrQngxFa+9Z3FSSMz/4aB3Da0b0nCqT1GwEFwx/joUw2SxlAr5PlIB3Ht/ig+k27itVbSyFErPMz8mjeppGxCDgDIPWad4WaCbt64QCPLQE5PM/+qxPEdXEISDxWPqnoTucil2oW7AE7SB8mayes3e0EnMiAD0rQ6u4VOLG9QJECOprMa6kISptZG8Hr0gV4ppY9/H7fstWKgVnrm5O4p3e89jQt3V/LJ8oHJIPYn4qvfvC4BW2sqExExVBfmDaqFEpOYGCK24oGkepG5wAItM1DXdQ8/wAkL8tBidgz+dI1cOvu7lBxQAJM8Gq+opISQlG1J9QxzS2DqS0StfQQO1aWxgaC0JEyE4IV9lpC3SUYKuR/cVT17TlpT6AIA5Aolpy0/ikEq7cdR2rRXVsi7YKkJCY/pJ/KlX6gsltUuZuyuS6c07a3i3kyhQVJE5+a7F4b1rzbJtLiZUtI4AzWHudES1fFRbCS5kya0Ph1omGgFSBgkDNT4m+PUMDiOEDW7TtHC2yr55LQbbcBSec5rOaqq4/GtXBlflqChnsaMK03Ube0TcFslkqABkGCROY/9UPeKSpRdjZEKJGZ9qzRqAAGEYA7lWNAa60fPiG3cZSPNEkQZxFCdV1r/UXEBrCWhAVOTQC7aIUShR2KmM/tVJKFMugpWZB68UMOnYwHaeVW9wujhaxp5sNpCTJHPt/mpkutymUgiR+dZb/UFNEhSRjIPFPVqxWkwnAmfV/5FQ7TuLgVQGC8law+XkkH14RJ/SotjSVeYoI5nPFZ+2v/AD7ZLayrnvFX2G13CSAqQOAcAiodFZA4Uudt6p2pXTQaX5aklXOKzF8v8QpRgBEST3+O9aLULBwpSlRyRwOKDXNkUOk9AMdjV2nLGHKFwNcLPXLy0LCUthZcEJA6RR/wP4j/AA3/AEFwVbCqAvp9/wDNZzV9yLhCEoKVKBA21YLH4ayaS0B5pzgdfetWVjJIw1w5RthNcrru9t5jbCSkA471jdc0XUW/5unPBxhSpLSlQofHcVU8Pa+5brTaXhJM4J61rbW7buEp8sZUuAhJkk1k/wBzTEAC/wDCGRm1+VmLHUdSZS7p61OIJEKQRP60D1LTUOPocQ4EKBkmK6SGmlOErAOcgpyKivdKtLwICh5e0+kJAE1w1hjO7ogLtxHZYTT1OJUgDasRndWo0LSLu6ebS4lTbaTJUrAj2oxpnhvTGLlI8rzXlQE+YcAz+Qog4+hlKkbtpTiAeKCfWP27o24PcKzdZyrDim9OtfKYbBg7RBEgd6Cazfp2FCFKCjj4qlr+tBhtUlRnqDWes9QU86pxwkmYIJ6VTGyR7NzuERObKwvj7wapeprvrXcUPkqWFGSFdTPas214H1ArJWNoAnBmu1X7f4hqFEEqE4xVVlvy4C5kjk8V6CHxqdkYaOioDWyNvqFzVrwZcsMpAUTuHqAHNaPQ/D6tNbVAhKx1MxWuSkvJSE5HJr14zDG4Aynp3paXxSaUbXHlEzsAhmnOv2bpGVtGACDitEkM39ttIBWQPisw9duJ/lJB8sDMdKn0y8UwUEKMDjHEdKVljLhuGCqg8kk9UQ/0paF7jAE4olaoS0JUuTPCRkUtpft3KAeCog5q6u1SGklJ2k5kZmkpJX/CVaJLBs8KZK0FMb5IA4/arltbtrBLcQBgE5mg+xbaiMnIMAZ+as2Lq23OYicH96Sc00Q1G54ZhWHLUELJCRBIGP3qrbachTxUtJJEYzg0SS55kyRPQUju9u4lRCU4MDn70LHSG1O9zsA5RLTWPLUEkEHoKkXbB7UFuJEnAx8VWGotWwSnb5jrhwAZOOpozorSrhYWoJBJkkcRW5/TejlknMh4SWrkbs2u5KPaKx5TCSsSTzRZhJ3GUgzzNV2EHaEoyOJAq8gAbQk8xnrX0kMe0CuizNwBtP2pESjrxVHWLZTtm4hCYJzRBKYXBERmI4py0AoPpAPaunj8xuw9f2Rsft9S5Pqbl2w4UqCkkSD1qHTX3PMbDjY3FUEq610u+0y3vCFqQgweoqinw6w26HigKIPNeTn8B1EhNPFfRabfEbFAZCTw0y8kGQNikhSUjPNahtJ2DmY/KqljbFhsAIg9MdKvoEpGM+1eh8O0X2KERMP8rPkkMzrQiIQZUAnrIp6SFJKvqMZjma8QmITMjPH7d683ATComR81eQ0HJVgOaKapK4MCSSPmoFJlZGRnAqwv1HdkffFROESSgEkiTV0bfRaEm7tRpSSI2xPPSvEKIKABHHFeSNkbhKTgmZk+3tUgAECZPsf71Dox8IUGQDJ5VVq3WlQckGTiTxVlQGyTiDB607mQAMZkHNNPKgSTIoIYGQiohQUtkvlROoK8gDcOOk0KvLeSVjrzmjO2BABkfrVd9lBGDA70MkNtB9lWRvrlZC/tiroJTn4xUvhtgNac84BtWpeDzRPUbTYlagCeojE0OsyWrV9G4plQKeteV8VjY6IgiiL/AA90tKB24i0L1FZLm0YjIJ/esv4hcC0OITMiJj3rU6uhbyFKSmSOZrIat6iveCYgqryccf8AcNnIWwxpIoLI+Qok+UIIXgE9Ks/hCkK809yIHFWFpSm6PpSADgjnmijTIfaKDBUrqrFaD5iKRbdx+Syl1aJKxAwZCZobdWb1rIUyQjGU1tHbG4Q2VhO8pVBPQe9K0whaNjyUkGeaYbqSyj0Sr22MhYIuPsLQ4VSrcDzzWl0fWGnUBtawFEwZ60zVNNU26VIT/LJ9MZiqH+jPrTLZKVhWD1q6R0UzcoHMe31FatbLdwwVqwZwZqaxs0NrD6FztgmTzxVPSbK78lIcUtZ4VuEfnV52wvW8pUlSe0TWU70nba5sYbxz+y09utFzaKd8xJVgFuDMDr8UHvrIkrIEiZB/tV7wzavh5PnQlIRuISqrd0oLeWhCCUbjEiBVDmOawOHv+FO23V1WNubcBaxvIABER+1U1JjaVALg9q1tzbofMKGIMEUKd0cPJCkuFsg5jNWxagVR5VfleokrNXXmuvbloVtUrJCe1IizcUv+W2tQUrmOcVqFaOwFBQQpXtP5zVtthplpE7BtM4MwKYdq6IACAMxYXNdaubnRdj3leYiR6TWq8JeIE3tptbTIVlw9U9IigX8RLplCPLQoKWT045rK6PqN/p92XbY/WCFBQxWtHphPBuqnfqqqLSQRhd8t2LcoUgLC9+EqI4FAdStXEJcacCSEqO0jg/NM8F+Jre6sktXG1NxtKAknBPWO9G32UXLZJSTPUVgzXG8NcKKNv4hcy1a2cc1lp1KiSlEHHGaJG1Q6kPuLG4Qdo60R1iwDVwHiEqSmZHtWfv8AU2LRlxPmBJVwT0rRZI6drdisDAqt8oIuyh45iQY4NWtP1C8ZaKgVq2RBB6Vm7i8ZuVbi9O7hW6DR8pRb6PLjwKtuIV7c05JFtaA4cqJ6v5K0f4iWGmPeRfpXKspUgxt+aJ2P8SfDdwUTehkjkOHn8q4L4nvEXmolaFbkp9M96q6fbuPvDaFbRzWqPAdOYw51g8rNMh37eV9Dar/FDSPwybOze/EpQ4VkobiSQATPJED9+9BH/F671tRbUc/7VZFcptkbH4IIAByO1HtN1li2dt12YWw62k7nRkk/4quTwqIVWa7piJm0kNC0d7qN7dLStwuHoCo4/On6NeOfjNjq0gcTNDbe/U6gggbDEH3pGmVtuqdWUqlXBMUuYRtLCKRyNplfkugWV6EgSoKKiYB696KpDT6CChIVA44rn9lqJtX0pciCJSfejuma1E7hO49OlYmo0bgLCqa159RWkTZobAhWemetR3zRUkgKCTHPNURqRI29ScGamZcKio7yoTBJ70mGPB9RRvJzRyh11aFtXEyJJjNRM2oWpO2eZk8jFG3mCtCCqJiTJ/Ka8ppIUC6lI7HgGrhPQQGO/VeShbSFsvb2lEn3E/ar7etN2yR+KISJxJiKdqDzVs2HFqSNuRJ/SsJquqIvb4kJHkoxB4JpjTwfaj6hjulSdmbXTGdTtXgnyy2r0yacjUbKZQ+jqSCRiuYJcKZWHCkkZAUY+RTFTulAMkwRPNXnwZjSLcrGPMnJXTHvEWlpICLltECDnrQ+58SruLhDOno3SkAqUOfisTZWlwt1spKQCqIiui+DfDylOpdebAAJgEVfpvA4nPFlLamfZQbyjXhzTn33k3Fwjc4TM9PiujabahhoQJJ4xiq2jaaE7YSIA6Dk96OtNEKAE46V6/SaNkEYaxKXucS40pGWyEgEqyMexq4gKIBjKcEdc0xpsk4MwIqdsQkZIz2rQIHDioc2gvD0r4JETmpAkjqTJppMqmQIMn8qVKwQnBB7k4qSbyP9ImBpwUqAEKgDPuMUpQFKyI9velCclIB5570/6uT1/KoLhaLYQdqjQgwonBnBmpQCBGI/WkI6QFDoaQCQZJGeRQnB3WuDaOAhiQQpKQD16/8AkU5JAKiFSUjnvSCNsqMxzPINOSmFTBGJ6YpVkhPpv8gmnbSbKYSTAgpBHU8VGW1c/UDzPHzU6igzESrPGaYoqISBIEfFWMcWAWodTuFWScQMgcCKVATuKhH/AD3qVbZbPoGSqTmvAEpJVJAETGTRgOcBfv31VbjZIvKYgQ4AQIHtSEQAT06/NSgBe5cKT9/0pHJAIT1+9Q1zVw9KiBySVEjpS+X5gHGORNK4CEBQGI6ClRtIIkiBXPaXYKkOHBVO5Z3NKzyY9xWc1NK7d0iIChnt8+1a9afSYyTxWc8T2ZetlD0kj6STHSsbxPS3E9u7lPaeUB4HRZ+5cbdPlNGElPXr7zWV1u03nc2hQUMGDg1O/fuMuqt3sFPvj4qom6W++lsKTtUZNfPtjmOu7P5L0GnlaG7wgztl5x/qbcSTCh1qxZF9sFshSkgj7VfdtFl9K5TAzM/2qdTUJhIjBExzV7pgwUUReAbtX7FdvcsS2QY5Ttiae/pKLsp2hKHO5GBQJq6dtrkr2naTtIIgVqdOvWnWkLO2CcgAyPal5j5bt5/I8qp4HTgrNXumqtHFW1wgLIkczJ+f71SesSy75jYWtJO6FZArcXXkPKG4btxyCM1A4ykMFlSB3SQmoZOas492iBFfNB9LdtykoSAlauRFGm22ij1qSlKDE/8AnNBm9McbuA4EqABzjkGrbw2thKOYiB1qpxaTudZQkVkImzaS2ryfUdsDbg/EUrlspNqRuKggFKQOlAG9WuLJfqJkGCIq9bawHE7VkpB/pPSo3SNjIQO5wmFCwsJKSRAn2qu9Jc3JTtkk7RwPajQuG3gAUoBUeZGKrXLKJKNw44FAXktGL+apIG60JKn1qMABJ4ExVV5vcw4FqUlRMAzxRZq2W+rymkkr5wYxTdTtRaoDTzJ8xQB3kyKbh3EbyMBAHAvWB1HQvMbcfXuJSZG7INAr2wWhaQhkpAGR1rpThCmilChPAHIqi5p6FGNo6jMYFOweIOHxKCA7LgucOW9yl1JAKClW/AgpPeuieGvEiF2zbN7tC/p80Dkj+9CdRtEpUqQBH5GhFwoMpKlCE9IxE0854nGQq9rY8LoeoWyLpsKBCt3B6Vi9d0dKt7a0BQMykD1VT0TxWnT3Rb3bhDY4JzFbRh+3u0JcBStKwFAjIIpDy5dEbI+hVtiiCuOX2gOIcPluFMn6SMCpzptyvTSyp6B9IhVdPudNtnCokCDPFDV6K0N24ggzmK02eKmQC+ioe4rjb3hO6S8FKcQGiqN0VoNN8OFlgBIKlbZTAxHet1d2ls2xBQnYjCdwGTQB29SylaWTChIA6CetP/8AIzahtKryWh3pGVjdbaXpxBUPrMQR/eoTdsBhLJRsdwMERRnWWU3DBXdOKU6I8tMQPn3rGXalquHFKELmSeta+mAlZR5CNznRPyESf1S8bX5W6B9KgauWmuKUtTT6huT/AFTg0FsNPurxpbqZKWzJ/wA0pLLbJQAHHDjI4q50MTvTSB0pretUjUUvKCcbYgKn9qJ+G7ld5cKZZbK8881jfD1leajcssIWUtAHiMD/ADXbPB2g29paoKUwQJMisTxSSLSs28lWROJbYFJ9hpV4pACwEZjOaK/gg02TuKlA5nrRAFtkJCknceAO3+arv3CBgkgE8k8+1ePdM+R3yVpa0A490h17ftWyPWlKUgf7qzmreJrRaClADsGUlJkEiov4l202rb7S1ehQV6SYIPesS00otJSZBT+cV6Hw7w2OWMSdVmOmpxRDVNVudTWEPLIRn0CQPvUdrCUmBtjHGKjMJCNyVKlWZ5qy1bPLd9Igk+kzMVteSIxQFJUy2d3vPy7qdtLqoSqCAJxRPT7NdwoDg8yB0717TtMcUQgoUCckTE8VvfC3h5fp80KyZhR/ejMbQNvf3+aF8lG2Jnhfw8txxJUkqCYgqz966poGkQlA2naOPeveH9HQlCCEztAkjtWst2UMJTtSATgDtWnDDG1tjH4fRBg5Ss2zTSA2lInkxU2xW+YII7GDFKgKkhQknrNOKTycCKfGMlc4CjaVIzgmBT0gEAGIpoR6cjdNPglMhMH2/wA1BBGXZU0SkSSAQSAJ6U4DJwBxBpFD+YDIgdIqUBW4hO0RXMsfJAPSU4Abvb3pBlZBxHSnfSrIhRySK8iMRInpQ7hxaIk82nJ4yI70skTM5PNeUDMEnjikPMAmCODGK66u1YARkFCmkqiITnFPSAIQU+k5HakKBsjamd0T3pyUlUEQcZHUClY2tdl1WrjgGl4ApUds/JrziUlKiemCaeNsSCBtGRTgFGScg8fFWNax+KBUAkH6qFACUpzmevtSpClqzxOakISnAwZhVN9ZVzJI4q0gAfT90BFBRqCST9W4CQRFMQndkwI7mrK8SEkccAwagWkCCDM8io4O0VSJpBJ7qNwbSR0Oc4NN7jaRIxjmpFyJUAPVzIyaaEgDcomOcdaMOBGcIAaxS8OAVdeKrXrCHGlFxaQCkxPtVjkgK3Ge1Q3aS4yUGAo4+RS+teXR+gX+6Yhc0Otcg8daau3uH3mQFQRtESTNZLTjcocUtQKNpyZ5rtOqaOq/cVKDkQSTk1Va8J2qGSlbSSv+mBgV4pnh0824uFDOeFrnXMbHsAyuftXaVNJAlS+QIpzTyw2VOGFCeP8Azij2r+E1pKjako2yQCKzN7b3VoFBTBSYie1ZsmgdESHBWs1DXCkt6nzGSSreOd0RHxQ631Fy0JKVlQzKZ596em8LYG5Rjg9hiht4+hxYUpICBiQcEUDIdx2O4+5THJeFrNN1Ji4X6FZ6gmj7N2HkBJUlSYjFcpTqBaXvAPGBP7US0nxWhDgauTtg5MyKCXRvq2ZRmQHIFAZXQFLcZnYo7YyeT8VUduxtUPKKY7H9aqWXiCyebOy4CkEAkhQMGvXD7DmUrkEyRNLO04YNpXebYOEK1RyQRMk0Lb1BxlzLSiInIJzRt1hklXrClHiDkmqV2ygetEgK/wC6r4w0elw5UNfjuqDut3XmlSUqyZRB5+9W2fEl2q3SHmyUgY28mqVwlLYVsJjlQ7+9D7m7ZbaUCpKRxE5poRse0BoVZnrphanTPF7NldIuClQj0lKux/vVfxD41tby49IV5YyECZ9zWENxvekpxPpBM/nVi2t2t0r2p9wZFNiBsbC03SrY/dRIC0SPE1slorCVewUOtMZ1p+6Ba2bUx25PzQ4W1uQfTuIjrgVrdF061u9H3BKQ62DmOBVDYYc1gqC9wBJaKQVCHH1Qoj4NMuNKSpUlZKT0FevLpNmhXnAoAOTGIoYfFGmruUsfiklxWAEqBqtkU7ssCHabyQo73RGFEhxpKx/VIjFTaC8rT1psyYaUfSSeD2oo6HHkJKQqT6s/pQW5SfPSgp2FSwCeOtMNeZWbHG0b2vA4ytPcLcQ2rco7EiZnmqy7srt4IKVR+dE3WW3GwwhSl+kZ54FUH7ZtNyEiZiD7Gs5jmnB5RPaA0nqgGrXSlpACh6TxQN+1uVNKcaSIT6lDqa2t1pYKSplv0zkDrTmbBgNK8xuUlJ4OQa0YdU1gACDe7G3K5vdNvPPBxR4AEKH0+1ULjQE3TilNlEwJMde1bS7ZtPNUWglaQqMdDVBTbbDgUnjkwM1qR6xw+HCrnjfK/CzFrprzDL7aHilJGY9qDMsKLivSqAYUSK3C7B673JZ9KTjdwo+1HPCngUKfQ7dMBQCgTJkR71e7xOOBpdIcqstfuqkD8N6Y/Yt27oZBC5USEzjt7V0bRHFM2xW9vBUZCYjFGVadbstoZS0CEnEcD/is14x1F1lxnT7HYbp5QIH+0TyfavNSas699AK4AxCr4/VaFpQecUs5UOh6VT1ZoqVMwOZPSqQ1y0tW0tLV5jyY3bBwes9qhutSduBvQPSYI60mzTva66wqjxZ5QnxaEr0VaHEzH0Tic4NYZrywvaptWcAEYrZ+KrlTlihtCm1E+nbPAGfz96CafpinnRCQpU/1V6vww7Ij2WVrGva8FQ21i66ncEqMJBjkzWl0nRnHUtubQIxHWimi6JDad7adxiQK2Wk6QmEFIicqia0Yt5oOHdA0ObkYVDw/oocUNwzzgda3ukaTCEnYTGJOadpWnpQ4gJmOc9q09rbJaTvWoCTgCtWDTlpt3VVhzyKcptPZLDe0pEAyIE1cELUQRPWe1RIVLhAUAI596kbMIkx6v1q+MBxpcTYwnoTCiBBPNPQIlQkK44poQSme3YU4idon7irucnoo6JUiYJgSMA8inIAyCJP9MV6JgKn5NOKfTyZ6Y5oN18LqIGEgRK0pGZ4ipmxnaABHJ7U1IgmSZ/anEQqPeuv0nqubZSEBUEqBHX4p6pjEGBwK8oekRnpzyK8BwVBRHBjtQ76ABCKnZtKlP8zcUmAMV4ZPHtBr0gElMnHBNeCkbzIUR+9B8TTnlSSBi0MIIAHQ8yKVICYGQP8AcBXgr6VGRBgSaRMJJjgZHzS4LDbW8Jg/FlKZMiCoH6YHPvNSt4SZUYiB3NRZBCpBMAg1OlUgEnjJB6VLTYu0BFEKPgfSqSfvSckwDgd6eUwrICtx+qZik2kDaeParWFpG0H/AAoNnCaTmJkkdqRSRvVMnHHanqV6RgDORNRuA7lQnJGDM0Z2fFyooqN4IAk4xHNIlslM7YHQzipAhRASZx3rwSkcGSBMRzUgtqlIJcKpRJSVTmM5zE0xaEKjaEk/NTqSAAUgpBzTIUcRwOlRtHdRbgokISI3JwcHNP8AKCwBt9X9NKtJ3gqCoGf+a8DwBMzXFreaR2OCqj9slRnqR14mguqaPb3Kdq0JwDAArVFO5EYB4qs9bkmQkZ4xSuo00LwQ4K9khGCuUa34TZO8tbkA9AMViNW0G5tJQFDak9evvXf7uyLiTyDjHxWb1nREPp9aRPdIrI1OgY3Ib1uleJnEbbwvnzULS88whQ27RIM9O9DXbW4LZK1kgYB2xFdf1vw8pLg/lSkYEJyayOp6S6w455baiOVCODVLGxx59hC6d4NO4WPtt7DhcStaFIPSfzoixq+qDcBeBUCQnbuqZ7TnEkrUkAzERAP+Kj/BOI2ryYGeBjsKsl8h1WwHjP1VAllDhWApmvEOrD0+Y0vpG0ffIp1zr96tsJ8pCSIGeKp/hyscESTBTgn2qV22cKUpMAjA6/nUDS6aRpxXzVrtY6iQobvUNQuU+paUNiZ2Ag1n9QauVKDgcWrJ2jkVpEWhkkA8RAxVLU7VSUwegPIiKBkLYidvCWfPJIAAUD0037rm4vHanB7miSHtRYd2KHSUmAfzoz4W0ptbQUtQG8Z9PaiGs6LCAoAkCYUBg4pSTVxul2UtOMSFu4H6q/a2RXZtEpBUtAUSDij3h4OW6VlKVJKvQQOveq3g62K9MYbI9QlORwAea0QY/CurU0JjmBzXm59TUham422wkrL+M9IXcac4pvcDBJUnkdK4fb6JcW+sbVu7fLXuMcnNfTrqEXtsptyAiMzzisR4h8KW1wFus/ynDPqSOfmn/CvFhpw6InBVfkEkbjwiugWgesGH9u/egESeRFCvFOjONpVcsoVKfV6aseBkX+lXqGrlSHrZQKQhXA+K2d2wh1ogBKkETxWfNN9nn3NNhXBziaJXJ9B1+5s7taLlwrSokZEEUd07U7e+u1lt2SOyf7VY1vwu2pwvMtZnjr70EtWEac/KUBETu6U858GoG9goqXNcSQFubVgPq2JVhQkieYpLnTUeQoKbAPAIOc0F0rXWkltL60JIERED2rYWl2zdsIkJWkD0xz/6rKkD4nW7ChoIbyudvaNb2LCkWyFBBlSglJJOc1XRZNPPeWlJUVYAg5H+a6fcWNuQkpUklQyEjNQNWzBQHdnlkDrEn5q1viZ27jyuY1vZZ7RvDraFpc8vYrnbH6k960gDVkwSVZAkjipUuttAQn0pTyTP50I1a7tkpDjh+nj1f2pUyP1D6chkcNtAqHVb+3atjcLdCW9m4qIxFc41nVXry5cdtmwiZAeIzHtRDxHqqrt5tkNkNpUQUx9XvVBPkIRKiCraJxE1v6PTCBu6slIvl3EBpVbTmHEpKkHaFZVOdxrR2/kNWBSVlB2hQAEzQhp5MkMCBjIxBorpVn+If3OJVkdTPtTb3OPISoomyeaQhq3uNQuC6RtbBITPJrWaRowcIUkEFPUDmj+jaChBG9IIiQI/etZp2mNtIA8rbGQSOa1tC2U+lzKbSVeGNuzkoXo+kIaQne3G6ARFaO0s0p2oSmJkCBxVy0slKSlKB6OTiKJMNIaO1tIC+preYxwItqrDrPNp1haJaTuVk+wzV0Ek5SVdZFNtUEndJI78VORP0iAMGrthJs9UIJ7oVdXzzDywdoa3ekpTnirOiamzfMpWAqD3BEH716/sRcICSoQrOBEVLpdgmzGxOTzng1h6WPXxas7z/bPHGPlSbeYSwbRRRCcESYA6mpEmYmQQe9NxtCZ2nrUjSUBIIEkce9eha7khK1Z5SwQrAz3mvIUSqCYiSK8CANw6mnIRE4BjE96FhO1QaBT8yITzkx1rxTKiBAx1p4kSAnCeTXgASSIEiSaEO7InYGUwBW6COuMU9SOc/FeBJgc+805UyQkjmh3O4RbBSYZgxJBHHb2pilbRMgnqDxUxyeYnoKqvFQIURGSMRmoFx4UH055VVpADhkbpwM4mnwVpUQkE8npTW0p8tQK0kHJMdamSApOYJk9eaWiA3c5TFnooZG4STj9DTm8gdcRmmrbUFyEgxgnpT0JBSTJzmCKIljXV1CE2XWE9PpWpWJTxnj3ryiSPSBG3mnehCjvJHvSDBG4ZB49qkEKCC5Rpn/akmIIPE0iUx2IEzUsmMwcdK9uASCYGMxzRtO00SuaVXUBgAgHuT0r23Mce8U8FBmEmAcV4yDlRJJwKKmkYQhotRg8EEAdhTCCgYghR6f3qZzbt445imHJwAQDERRx1wp6UoolYxmYpAkfV3xgRT1EyCRGOPevIQSmTk8ewonPaHLjlIFAeqJ96cFBaSFGT0mkUmDMkSI+KTKRAyQOlcQLAK6h1TltAkiRJ/KqlxbhwgKA/LFWwohME/OKlhKwPjvVbo2uFnhH0oLM32mIWMAA9cSOazGq+HQrfKSk/UIro7rUAQmYGOtQO2iXAQoRPYUm/RsIvP5Kxr7FlcS1bw+4FExndO4DJNA7jSXCshSDKpBMZrud5pSF7iEiek0Du/D7RBHlAGJJmkH6M+Z8kTwHAFcdOnK2bVpUCMJgdKjFopKvTuIBgda6Xd+H2w4YTyI78UMudGU2mUNwOm0RURgMO49L+v5KnyeDawZtMkhRUTMyODVS9slKKoCY6nqK3Nxpa5I8syoT7VWGlBR2qQcqzI4NCfW0xtBDjn+FHl24O5Wa8PJUlXlKTlJyYFbJy1Uqx2OBsAmdpyRI5/Sh/+kqtnwWknM7iE/VRlbimbNDTSFwUjcCJrzGohkjc7cCDwtaOegMqr4fKbF87pSlREYMVsHtPDtrvZUFTwByJrHB9CYBJSsdCOaL2+rtJbQhTpMYB3RWXJTm1tO73+KaaSTYKbd2ymGiolMjmDQ19xRQSUbgRmOK0UJcBSVbhAOODVRWntbisqKZ6Rz8e1IscWGnghWHPptZh9QAchEBQ6DAp9hrardzyHfSkkAycUYvdMdCdqAQmI/5FCb3RXVHCJUIiacDmOFPCmMWb4RwPIuEDaoGMmDk0N1nR2LuCEhR/q6VV04XLDoYUzsBOVTz/AIog3eJyFekg8E8VQGOikG1CTtyAsnfeEbgmLZ6B13iapWVv4j0m5AaPmtbpKSuRXQHL1IZWhTbRUqFBUEKHPEHrPXsKpuOpJUoJBBiZ60/9skra4Bw+aAuawnH+1X0/XnXUbbu1VbmMmdw9+Ksq1ZhLZCVKIAwIoW8EeXEJG7qO9VFBCdpiNpyCf1qgaeNziQ2lzntOAr+o6stTZRbgpMfUaB3jxIcXcPSkJyVEVZcIMyEZEgp/xVO407UdQSlltj+UPqI4mtXS6RxoNakp5AGrIvXd3c3ZWEgJ3ekEcCillZrdgFAJPE9a1mleDHlpQl2RBkmOa1eneFGm9sIgjEdhXpYtFJJjbQ/T5LNdLQG3lYrR9AcWpCVyVHJAHHsa3Gi6GEBsKbSSE9K0WnaGyymUtyQcjsa0FnYJCQqBjEmtKDw4RvDj7+qXJJP1Qi0sClUbJHbtRZmxbQjcoR17TVxCEJgtp9XelLe7r8ZxWjFFXKEusGk0AEJCcAHtU7LJ3jbB+3FI0kJGVemO3FTW0gEKxGKtHobkLiQpkNlICeR0P2qUfUZ+mMYrwSqBkfHelSojHJHX+1SQenKIE1XRJ5ZI5Ht8U8QlRnBOKamcpkgk5BPFSISQJiT1JNA8lpoIbJGF5O0K2nHvUqUgSBAA60kEg7k8GnoBKRMCDmO/ehc4gBTmgAMJG0g5k9aegCOI+aUjgkk+9IPSCndI9xQuccEUuDbUgCkmPpPecRSq288SP1pN0jnrkGvOcmPSSMGYqOEZvKb9IkY++acSVDA+CKaTubAMAz/4aYmdyoJTJjJqN9myuALc0lUsDE8DNRLUJTuBkg8cU9QEHr7d6hKpBM4TiBzQ7vWV2QaKrsuAp8wQpGcj/NToPK9oE4GP1rK+DdYa1FkoSl2W4QorA9UYnmtOg7nTjPEz71jxz742yg0Pp17pstLcFSqVKeMcRPSkEoiSQJpYShUbQdwzSOFsqHoE7TMU+2Y7QCcqg4BTgUnBAUSB9vekUpKQAQTIqJE+X5h/p/OpQSEgk+oiZFEZmAEfsuvNBM8wlBIVA3ZAxTlFJP1A+1RrkJI7ZV75pCoqVJGaOKQDqoskUpEFKkEbiMyBFIUDbIUSAaaIn0yBnBzTtpgQcTMUfm91IamRCdu2TTVJgY3DM/NSBSjuTMRmmuypAVycDNc2XBN8LnEZwoxIVuKIkdsU5AhMAEDt2rwCiqCRgRSqO5MGjHOVxwE1SJIImT0iaRQE7hMDqKcSSrJMGBivODPA5xUh2cdbUH0pgMLAgxzNeSFFXpMCa9uV1r0kKAB6moyW5XHupEqj0nd9zTkhCxG4bumKZgrgCBSKTtUSOtEXUBSmxaepiUnv0xUD1uFqjbyIqfzCkwRPbNOB3AdzQPOdq7ftICFP2Da59IHfFD7jSk+oerIiR+1acNykzH5VEppH1QO+KoLLojorBIsXcaEFFW5A2j7GhTuiFKxtSZ5AJxXRVNJUkzkVWctkJIgCFCeMzSckDXkA++qPzNgXPVaa6FD+UqO8U5/T4bJMQkCcVu1WLaiqYAngVErTmYJie4ilpdIS05RCYYXObvSWXh9OE4wM0Pf0NaAFtJkYIB611BenMifaDTX9MbLaVq2wOkVnyaAFrnHk+6TEc23AXM2lXNkyEJZKilWd08dqs2WppWuHR5WOFSR+dbxekW62jIBJOTETUX/x+zMEpAjsOtZ8nhTSRZ4RfasFZH8chwqlaR7A8mq7lwkq2bhgHaDk1sl+H7FxP/1pEe1PR4ftUOAwkGYwKWPgr3Gmu5K5+rsABc9eLjyoKSCesUIvmLkJWQ2rcBkc8dfeusp0C2Sn0hJMdR71ErRmt59KIzirYfB3XTjn/Ch+qIBC49ao1dLoUlDjrZEBCuv+KvWzGtPuJ/6cBClyTziurJ0m2aAUltJiCJFSs2bIbCwkADERWkPBGvGeaVB1hbgLnKPDl8te4gZOYMAVKz4RdIl5c94GIrpSbdtDUpSMjgineSmTIEgYxTUfgccYpUu1kh9KxFh4aZaUHNkmeomi1tozLRkfkOk1ok24ByRJEU9KG0pCimSOtbEOgZF6RzdqiSR1ZKEtacgKSoJJAM+9Xre0bSBukjMCrbZJVuAAgdqeEEwueelPBrWushVhhqyoRsQDsTMcECnjdwZz70sc8cTS/wD7EpIHEzFWDmwP4VZvqU5Sd42gwfmrIYhmcRzzXm2kkbiTEY9qtFuEAEyCKCgCSFIq7VcNApjmpGW4M9BmnqQEoEHmlJyR7VF+o0iJrKVJSII5pSUkjceP0qNRPl5PBpyTxge+KnPJUjPCkSOc4J5FOx0JIPE9K8hAExwR/elgqSDM/NA82KpSBXKkRJTHQT96RCzJOfv0pBJVBOIp6JJIBiTBNDhoF9FABIFJ7cJEqBV8HmnkJCT2jtxULShvTkyeKlEqUdpjvVZzhS0AYS5kgdTiaaVRhUY4pFYJIJEGB7U12AIiSOs0W6r7LnOLjheUpJyFY/evKUVAjceMVDvSSdqRgcEfrUa3AE7s8SKh2B9VW1xIypVOFKylcRHNBtd1dmwtS+4VfUAkJEn2/wDdWrx7yQpyCdok1zHxxrF5a3IfKy9bOKA8hZxtOCCI7mZ9qSn1Qa0k4KvjYS4l3C//2Q==;imageBorder=light-dark(#000000,#959595);" vertex="1" parent="1">
          <mxGeometry x="-620.99" y="173" width="121.97" height="91" as="geometry" />
        </mxCell>
        <mxCell id="GoZTo88fbC2dwOfaapeQ-13" value="&lt;font style=&quot;font-size: 16px;&quot;&gt;unknown&lt;/font&gt;" style="text;html=1;align=center;verticalAlign=middle;whiteSpace=wrap;rounded=0;" vertex="1" parent="1">
          <mxGeometry x="-422" y="834" width="120" height="30" as="geometry" />
        </mxCell>
        <mxCell id="GoZTo88fbC2dwOfaapeQ-14" value="&lt;font style=&quot;font-size: 16px;&quot;&gt;unknown&lt;/font&gt;" style="text;html=1;align=center;verticalAlign=middle;whiteSpace=wrap;rounded=0;" vertex="1" parent="1">
          <mxGeometry x="-222" y="834" width="120" height="30" as="geometry" />
        </mxCell>
        <mxCell id="GoZTo88fbC2dwOfaapeQ-15" value="&lt;font style=&quot;font-size: 16px;&quot;&gt;Yes&lt;/font&gt;" style="text;html=1;align=center;verticalAlign=middle;whiteSpace=wrap;rounded=0;" vertex="1" parent="1">
          <mxGeometry x="-592" y="463" width="120" height="30" as="geometry" />
        </mxCell>
        <mxCell id="GoZTo88fbC2dwOfaapeQ-16" value="&lt;font style=&quot;font-size: 16px;&quot;&gt;No&lt;/font&gt;" style="text;html=1;align=center;verticalAlign=middle;whiteSpace=wrap;rounded=0;" vertex="1" parent="1">
          <mxGeometry x="-382" y="344" width="120" height="30" as="geometry" />
        </mxCell>
        <mxCell id="GoZTo88fbC2dwOfaapeQ-17" value="&lt;font style=&quot;font-size: 16px;&quot;&gt;Yes&lt;/font&gt;" style="text;html=1;align=center;verticalAlign=middle;whiteSpace=wrap;rounded=0;" vertex="1" parent="1">
          <mxGeometry x="-392" y="774" width="120" height="30" as="geometry" />
        </mxCell>
      </root>
    </mxGraphModel>
  </diagram>
</mxfile>
